<?xml version="1.0" standalone="no"?>
<!DOCTYPE svg PUBLIC "-//W3C//DTD SVG 1.1//EN" "http://www.w3.org/Graphics/SVG/1.1/DTD/svg11.dtd" >
<svg xmlns="http://www.w3.org/2000/svg">
<metadata></metadata>
<defs>
<font id="roboto_monoitalic" horiz-adv-x="1202" >
<font-face units-per-em="2048" ascent="1638" descent="-410" />
<missing-glyph horiz-adv-x="500" />
<glyph horiz-adv-x="0" />
<glyph unicode="&#xd;" />
<glyph horiz-adv-x="0" />
<glyph horiz-adv-x="0" />
<glyph />
<glyph unicode="&#x9;" />
<glyph unicode=" " />
<glyph unicode="!" d="M384 94q1 49 31.5 81.5t80.5 34.5q24 1 45 -7t36 -23t23 -35.5t8 -44.5q-1 -49 -33 -79.5t-80 -32.5q-24 -1 -44.5 6.5t-35 21.5t-23 34t-8.5 44zM466 471l171 985h182l-171 -985h-182z" />
<glyph unicode="&#x22;" d="M414 1056l61 385l17 104l145 -10l-18 -116l-77 -362zM761 1057l60 377l17 102h147l-20 -117l-77 -362h-127z" />
<glyph unicode="#" d="M26 410l24 137h254l129 354h-249l25 139h274l152 416h145l-153 -416h250l153 416h144l-152 -416h197l-24 -139h-223l-128 -354h217l-24 -137h-242l-149 -410h-145l150 410h-251l-149 -410h-145l150 410h-230zM449 547h250l129 354h-251z" />
<glyph unicode="$" d="M129 429h181q-4 -59 6 -111t37 -91t71.5 -62.5t109.5 -24.5q58 -2 111 13.5t95 46t69.5 76.5t34.5 106q6 54 -10.5 95t-48.5 72.5t-74 54.5t-87 40q-74 29 -138 67t-110.5 89.5t-70.5 118t-18 153.5t38.5 156.5t85.5 120t124 82t155 41.5l39 220h146l-40 -222 q86 -17 142 -61.5t88 -107.5t43 -138.5t6 -154.5h-180q3 51 -3 105t-27.5 98t-60.5 73t-102 31q-56 1 -103.5 -15.5t-83 -48t-58.5 -76.5t-29 -100q-6 -57 11 -98.5t49.5 -72.5t75.5 -54t90 -41q73 -30 136.5 -67.5t109 -88t69 -116.5t17.5 -153q-6 -92 -41.5 -162.5 t-93 -120t-133 -79t-161.5 -38.5l-35 -192h-146l35 193q-88 13 -151 52.5t-102 98t-56 133.5t-12 160z" />
<glyph unicode="%" d="M134 1117l7 76q7 59 30.5 111.5t61.5 91.5t89 61t114 21q60 -2 104.5 -25t73.5 -62t41.5 -90t8.5 -107l-7 -77q-7 -59 -30.5 -110.5t-61 -90.5t-89 -61t-113.5 -20q-60 1 -104.5 24.5t-73.5 62.5t-42 89t-9 106zM216 254l727 1032l104 -65l-728 -1032zM272 1115 q-2 -28 1.5 -56t15.5 -51t33 -38t55 -15t59.5 14t42.5 36.5t27 51.5t14 59l7 79q2 28 -1.5 56.5t-15.5 52t-33 38.5t-55 16q-35 0 -60 -14t-42.5 -37.5t-27.5 -52.5t-13 -59zM568 260l7 77q7 59 30.5 111.5t61.5 91.5t89.5 60.5t114.5 20.5q60 -2 104.5 -25t73.5 -62 t42 -89.5t9 -106.5l-8 -78q-7 -59 -30.5 -111t-61 -90t-89 -60t-113.5 -21q-60 1 -105 24.5t-74 62t-42 89t-9 106.5zM706 258q-2 -28 2 -56t16 -51.5t33 -38t55 -15.5q34 0 59.5 14t42.5 37t27 52t14 59l7 80q2 28 -1.5 56.5t-15 51.5t-32.5 38t-55 16q-35 0 -60.5 -14 t-43 -37t-27.5 -52t-14 -59z" />
<glyph unicode="&#x26;" d="M69 366q6 75 35.5 136t75 112.5t102.5 94t116 79.5q-19 39 -37 79t-30.5 81t-19 83.5t-3.5 87.5q6 80 36.5 147t81 114.5t119 73t150.5 23.5q62 -2 113.5 -26t88 -64.5t55 -94.5t14.5 -116q-3 -57 -25 -103.5t-55.5 -85.5t-75 -72.5t-84.5 -64.5l-114 -87l230 -396 q50 70 80 145t44 160h160q-13 -127 -62.5 -236.5t-138.5 -200.5l133 -235h-202l-61 108q-78 -59 -166.5 -94t-188.5 -33q-84 1 -155 29t-121 78.5t-75.5 121t-19.5 156.5zM251 365q-6 -50 4.5 -92.5t36 -73.5t64.5 -49t90 -19q76 -2 143.5 28t128.5 72l-240 430l-31 -25 q-32 -25 -64.5 -54.5t-60 -63.5t-46.5 -72.5t-25 -80.5zM484 1061q3 -30 10.5 -58.5t19 -56.5t23.5 -55l128 92q50 37 86 83t42 111q3 27 -2.5 53.5t-19 47.5t-35.5 34.5t-53 13.5q-43 1 -77.5 -16t-60 -46t-41 -66.5t-19.5 -76.5q-4 -30 -1 -60z" />
<glyph unicode="'" d="M550 1056l61 383l16 105l154 -9l-19 -119l-76 -359z" />
<glyph unicode="(" d="M328.5 393q2.5 96 14.5 183l2 11q14 98 40.5 201.5t65 205.5t90.5 198t117 181t144.5 154t174.5 117l27 -124q-110 -81 -190.5 -187.5t-137.5 -227t-93 -251.5t-56 -262l-2 -15q-11 -72 -18 -154t-6 -168t11 -172t34 -166t64 -150.5t100 -124.5l-47 -112 q-78 55 -135.5 130t-97 162.5t-62.5 183.5t-32.5 193.5t-7 193.5z" />
<glyph unicode=")" d="M160 -356q111 81 191.5 188.5t137.5 230t93 254.5t56 263l2 15q10 71 17 153t6 168t-11.5 173t-34.5 167.5t-63.5 150.5t-98.5 124l46 112q79 -55 137 -130t97.5 -162.5t62.5 -183.5t32.5 -194t7 -194t-14.5 -183l-2 -11q-14 -98 -40.5 -201.5t-65 -205t-90.5 -198 t-117.5 -181t-145 -154t-174.5 -116.5z" />
<glyph unicode="*" d="M181 782l77 170l335 -153l42 425h174l-94 -422l371 148l25 -184l-387 -94l200 -328l-152 -105l-151 364l-259 -351l-133 111l302 323z" />
<glyph unicode="+" d="M114 597l33 184h393l74 425h181l-74 -425h395l-32 -184h-395l-78 -451h-181l79 451h-395z" />
<glyph unicode="," d="M194 -271q53 70 87.5 147t49.5 164l32 179h196l-29 -175q-19 -113 -78 -210.5t-148 -169.5z" />
<glyph unicode="-" horiz-adv-x="1203" d="M204 561l27 152h743l-27 -152h-743z" />
<glyph unicode="." d="M398 115q0 31 10.5 58.5t29 47.5t45 31.5t58.5 11.5q31 1 57 -9t44.5 -29t29 -44.5t10.5 -56.5q0 -32 -11 -58t-30 -45.5t-46 -30.5t-58 -11q-30 0 -55.5 9.5t-44 27.5t-29 43t-10.5 55z" />
<glyph unicode="/" d="M114 -125l864 1581h170l-863 -1581h-171z" />
<glyph unicode="0" d="M129 419q-2 69 7 138l54 341q11 74 32 146.5t53.5 137.5t76.5 120t100.5 94.5t126.5 61t155 19.5q81 -2 142 -26.5t105.5 -66t72.5 -96.5t42 -119t16 -133t-7 -138l-54 -339q-17 -112 -56.5 -217.5t-105 -187t-160 -129.5t-221.5 -45q-80 2 -141.5 26.5t-106 65.5 t-72.5 96t-42.5 118.5t-16.5 132.5zM298 416q-1 -56 9.5 -107t36 -90t68 -63t105.5 -26q85 -3 145.5 30t101.5 88.5t64.5 126t34.5 143.5l54 326zM322 602l622 432q1 57 -9 109t-35.5 92t-68 64t-106.5 26q-85 3 -145.5 -29.5t-102 -87.5t-65 -125.5t-34.5 -143.5z" />
<glyph unicode="1" d="M282 1071l32 177l562 208h19l-247 -1456h-181l211 1215z" />
<glyph unicode="2" d="M15 0l22 141l538 523q41 41 88 86.5t88 96.5t70.5 107t37.5 118q6 51 -5 96.5t-38 79.5t-68 54.5t-94 22.5q-71 2 -126 -19.5t-95.5 -61t-65.5 -95t-34 -121.5l-180 -1q10 100 53 183.5t111 143t156.5 92t189.5 30.5q86 -2 159 -30.5t124.5 -80.5t77.5 -124.5t19 -160.5 q-6 -77 -39.5 -147t-81 -133t-104 -119t-109.5 -106l-446 -424h703l-24 -151h-927z" />
<glyph unicode="3" d="M52 385l180 -1q-4 -56 9.5 -102t42 -79t72.5 -52t101 -20q65 -2 119.5 17.5t95.5 56t67 89t33 116.5q7 62 -8 109t-47 79t-80 49t-108 19l-140 1l27 150l119 -2q61 0 117.5 17t101.5 49.5t74.5 81t37.5 113.5q6 54 -3 99.5t-34.5 78.5t-66 51.5t-97.5 20.5 q-59 1 -109 -17t-88.5 -51t-63.5 -79.5t-35 -103.5l-179 -1q10 93 52.5 168t108 127.5t149 80.5t174.5 27q90 -2 162.5 -31.5t122 -82t73 -126.5t15.5 -165q-5 -60 -29 -110.5t-61.5 -91.5t-84.5 -73t-99 -55q51 -22 87.5 -55.5t58 -76.5t29.5 -92.5t4 -103.5 q-9 -101 -51.5 -182t-110 -138t-155.5 -86.5t-187 -27.5q-90 2 -165 31t-127.5 81.5t-80.5 126.5t-23 166z" />
<glyph unicode="4" d="M27 338l21 119l799 999h199l-168 -967h197l-26 -151h-197l-59 -338h-181l59 338h-644zM259 489h438l132 723l-39 -58z" />
<glyph unicode="5" d="M143 384h169q3 -54 18 -99.5t43.5 -79.5t71 -53.5t99.5 -21.5q73 -2 130 26t96.5 76t63 110t31.5 128q6 58 -3 113.5t-35 99t-71 71.5t-110 30q-73 2 -130 -22.5t-113 -67.5l-149 39l197 723h727l-32 -180h-571l-116 -389q110 65 238 63q101 -2 171.5 -43t113 -108.5 t58.5 -153t7 -175.5q-10 -105 -50 -196t-106 -157t-156 -103t-200 -34q-90 2 -161.5 32t-122 83.5t-78 127t-30.5 161.5z" />
<glyph unicode="6" d="M128 538l12 87q16 113 47 219t78 198.5t111.5 168.5t148 131t187 85.5t228.5 30.5h20l-17 -166h-12q-120 1 -214 -34.5t-165 -99.5t-121.5 -153t-84.5 -196q64 66 144.5 106.5t174.5 39.5q98 -2 167 -43.5t111 -108t58 -150.5t8 -171q-9 -102 -47.5 -194t-102.5 -161.5 t-152 -109.5t-197 -37q-111 3 -188.5 54t-124.5 131t-63.5 178t-5.5 195zM307 451q0 -44 7 -87.5t21.5 -84.5t38.5 -73t60 -52t85 -22q71 -2 126 27t94 78t62 111t30 125q6 54 -0.5 111.5t-30 105t-65 78.5t-106.5 33q-51 2 -97.5 -14t-86 -44t-71.5 -66t-55 -81l-8 -64 q-4 -37 -4 -81z" />
<glyph unicode="7" d="M191 0l786 1294h-761l26 162h956l-18 -114l-791 -1342h-198z" />
<glyph unicode="8" d="M136 385q6 68 30.5 124.5t64.5 102.5t92 81.5t112 61.5q-78 54 -115.5 136t-30.5 176t45.5 170.5t101 130.5t144 82t174.5 26q85 -2 155.5 -31t120 -80t74 -122t17.5 -158q-5 -61 -27.5 -112.5t-58 -93.5t-81.5 -76t-98 -59q46 -27 81.5 -64t58 -81t32 -94t5.5 -103 q-8 -99 -51.5 -178.5t-111.5 -134t-155.5 -83t-183.5 -26.5q-89 2 -164.5 30.5t-129.5 81t-81.5 126.5t-19.5 167zM319 388q-6 -56 6 -103t40.5 -81t72.5 -53.5t101 -20.5q62 -2 116.5 18t96.5 56.5t69 88t33 113.5q6 54 -6.5 102.5t-41 84.5t-72 57.5t-100.5 23.5 q-63 1 -118 -20t-96.5 -60t-67.5 -92t-33 -114zM469 1064q-5 -48 5 -91.5t34.5 -76t63 -52t89.5 -20.5q56 -1 104.5 18.5t85 55t59 83t28.5 101.5q5 48 -5.5 91.5t-35.5 77t-63.5 53.5t-89.5 21q-57 1 -105 -19t-84 -55.5t-58 -84t-28 -102.5z" />
<glyph unicode="9" d="M203 965q10 102 48 195.5t102 164.5t152.5 112t198.5 39q80 -1 140.5 -27t105 -69t73 -100.5t43.5 -122t17 -134t-6 -136.5l-9 -67q-16 -114 -45.5 -219.5t-75 -197t-108.5 -166t-146 -127.5t-186.5 -82.5t-229.5 -29.5h-23l16 165h16q123 -1 216.5 31t163.5 92.5 t118.5 148t80.5 198.5q-63 -70 -143.5 -109t-176.5 -37q-98 2 -166.5 44.5t-110.5 110.5t-57.5 152.5t-7.5 170.5zM382 975q-6 -53 0.5 -111.5t29 -107.5t64 -81.5t106.5 -34.5q52 -2 99.5 15t87.5 47t72.5 69.5t55.5 83.5l7 59q3 37 3 81t-6.5 89t-21 87.5t-38.5 75.5 t-59.5 53.5t-85.5 22.5q-72 2 -127.5 -28.5t-94.5 -80.5t-62 -113t-30 -126z" />
<glyph unicode=":" d="M447 115q0 31 10.5 58.5t29 47.5t45 31.5t58.5 11.5q31 1 57 -9t44.5 -29t29 -44.5t10.5 -56.5q0 -32 -11 -58t-30 -45.5t-46 -30.5t-58 -11q-30 0 -55.5 9.5t-44 27.5t-29 43t-10.5 55zM598 991q0 31 10.5 58.5t29 47.5t45 31.5t58.5 11.5q31 1 57 -9t44.5 -29t29 -44.5 t10.5 -56.5q0 -32 -11 -58t-30 -45.5t-46 -30.5t-58 -11q-30 0 -55.5 9.5t-44 27.5t-29 43t-10.5 55z" />
<glyph unicode=";" d="M322 -271q53 70 87.5 147t49.5 164l32 179h196l-29 -175q-19 -113 -78 -210.5t-148 -169.5zM589 991q0 31 10.5 58.5t29 47.5t45 31.5t58.5 11.5q31 1 57 -9t44.5 -29t29 -44.5t10.5 -56.5q0 -32 -11 -58t-30 -45.5t-46 -30.5t-58 -11q-30 0 -55.5 9.5t-44 27.5t-29 43 t-10.5 55z" />
<glyph unicode="&#x3c;" d="M161 580l26 146l889 378l-30 -201l-630 -240l-65 -20l38 -15l563 -240l-33 -187z" />
<glyph unicode="=" d="M126 365l29 160h867l-28 -160h-868zM198 780l29 161h867l-28 -161h-868z" />
<glyph unicode="&#x3e;" d="M101 192l36 201l659 240l71 20l-45 16l-596 244l32 183l793 -379l-26 -145z" />
<glyph unicode="?" d="M279 1116q10 89 51 157t103.5 113.5t141.5 68.5t165 21q84 -2 154.5 -27t119.5 -72t73.5 -115t17.5 -156q-7 -78 -39 -143t-79.5 -120.5t-104 -104t-112.5 -93.5q-59 -49 -85.5 -105t-37.5 -130l-177 -1q6 63 19.5 110.5t36 88t56.5 76.5t82 77q39 33 81 70t78.5 79 t62.5 89.5t34 101.5q7 50 -3.5 89.5t-35.5 67t-63.5 43t-87.5 16.5q-50 1 -95 -11.5t-81 -37.5t-61 -63t-35 -88zM388 94q1 49 31.5 81.5t80.5 34.5q24 1 45 -7t36 -23t23 -35.5t8 -44.5q-1 -49 -33 -79.5t-80 -32.5q-24 -1 -44.5 6.5t-35.5 21.5t-23 34t-8 44z" />
<glyph unicode="@" d="M68 520.5q1 82.5 14 164.5q14 85 42.5 176t72 177.5t101.5 164t130.5 135t158 90t185.5 30.5q89 -2 156 -31.5t113.5 -79t75 -114.5t41.5 -138t13 -150t-11 -150q-7 -43 -18 -95.5t-29 -106t-43.5 -103.5t-60 -88.5t-79 -61.5t-100.5 -22q-60 2 -95.5 33.5t-46.5 88.5 q-20 -24 -42 -46t-47 -38.5t-53.5 -26.5t-61.5 -10q-41 0 -68 18.5t-43 48t-23 67t-8.5 76t2 74.5t7.5 63q8 51 23 108t38 112t55 105t73.5 87.5t93 59t114.5 19.5q109 -3 174 -91l-118 -505q-3 -18 -5.5 -40t0.5 -42t14.5 -34t37.5 -15q38 -2 66.5 17.5t50 51.5t36.5 73 t25 82t15.5 78.5t9.5 62.5q7 57 9 118t-5.5 120t-26.5 112.5t-53 94t-85.5 65.5t-124.5 27q-84 2 -155.5 -25t-130 -75.5t-105 -114t-81 -138t-57.5 -149t-35 -146.5q-11 -63 -15 -129t3 -128.5t27 -117.5t57.5 -97t94 -66.5t136.5 -25.5q63 0 122 17.5t113 46.5l22 -119 q-57 -38 -124 -55.5t-135 -16.5q-98 1 -171.5 30t-125 78.5t-82.5 116.5t-45 143.5t-13 159zM466 544.5q1 -23.5 7 -43t18 -32.5t32 -14q29 -2 53.5 8t45 27.5t38 39t31.5 43.5l114 450q-13 5 -25 8.5t-26 4.5q-47 3 -84 -14t-66 -46t-50.5 -67.5t-36.5 -80.5t-25 -84 t-16 -78q-2 -12 -5 -31.5t-4.5 -43t-0.5 -47z" />
<glyph unicode="A" d="M-30 0l709 1456h152l195 -1456h-173l-46 377h-469l-180 -377h-188zM413 538h375l-76 630z" />
<glyph unicode="B" d="M62 0l253 1456l409 -1q84 -3 160.5 -27.5t134 -72t88.5 -117.5q25 -55 24 -125q0 -18 -1 -37q-5 -61 -28.5 -109.5t-60 -86.5t-84 -67.5t-99.5 -51.5q52 -20 90 -54.5t63 -78t35 -94.5q8 -37 9 -75q0 -15 -2 -30q-7 -103 -54 -183t-119.5 -135t-164.5 -83t-188 -28h-465z M271 157l266 -2q61 1 117.5 20t102.5 53.5t76.5 84.5t38.5 113q3 19 3 38q-1 34 -9 62q-12 46 -40 79t-70.5 52.5t-96.5 22.5l-297 1zM389 835l240 -2q55 1 109 17t98 47t74 76t37 104q2 17 2 32q-1 35 -11 63q-16 40 -46.5 67t-74 41.5t-92.5 16.5l-256 1z" />
<glyph unicode="C" d="M102 478v25q0 63 8 123l32 203q13 79 37.5 158t61 151.5t85.5 135t112 108.5q62 44 138 70q70 24 154 24h13q103 -2 179 -39.5t127 -100.5t77.5 -147t30.5 -180h-179q-3 60 -16 116t-41.5 100t-74 71.5t-113.5 29.5h-11q-58 0 -108 -19q-54 -21 -96.5 -57.5t-74 -86.5 t-55 -105.5t-39 -114t-24.5 -112.5l-34 -206q-7 -47 -10 -101q-1 -20 -1 -41q0 -34 3 -68q5 -54 19.5 -104.5t42.5 -90t72 -64t107 -26.5h16q62 0 112 21q56 24 99.5 66t73 99t47.5 121l174 3q-20 -99 -66 -184.5t-114 -147.5q-70 -62 -158 -96q-81 -32 -176 -32h-17 q-86 2 -152.5 30.5t-115 76t-79.5 110.5t-47.5 134t-18.5 147z" />
<glyph unicode="D" d="M46 0l252 1456l316 -1q144 -3 249.5 -58.5t171 -147t89.5 -212.5q14 -71 15 -148q0 -53 -7 -108l-15 -107q-22 -144 -82.5 -267t-154.5 -213.5t-219 -142t-276 -51.5h-339zM256 151l133 -1q117 1 210 42t162 111.5t113 166t62 204.5l16 110q7 53 7 105q-1 43 -5 83 q-10 92 -50 164t-111.5 117.5t-181.5 49.5l-155 1z" />
<glyph unicode="E" d="M72 0l253 1456h860l-28 -158h-679l-81 -468h590l-28 -157h-589l-90 -516h688l-28 -157h-868z" />
<glyph unicode="F" d="M81 0l252 1456h869l-28 -158h-685l-87 -498h588l-27 -157h-588l-112 -643h-182z" />
<glyph unicode="G" d="M100 492q-1 20 -1 39q0 57 7 112l26 169q13 79 38 159.5t62.5 155t87.5 139t113.5 112t140.5 74.5q72 24 156 24h13q98 -2 174.5 -37t129 -95t80.5 -141t30 -175h-177q-4 57 -19 109t-44 92t-74.5 63.5t-109.5 25.5h-11q-61 0 -110 -20q-54 -21 -97 -58.5t-76.5 -88.5 t-57.5 -107.5t-40.5 -115.5t-25.5 -114l-28 -172q-7 -49 -8 -104v-14q0 -48 7 -96q7 -55 24.5 -105.5t48 -90t75 -65t107.5 -28.5q15 -1 31 -1q68 0 134 18q79 23 140 86l57 327h-287l27 156h459l-82 -534q-95 -104 -220 -159q-116 -51 -245 -51h-24q-86 3 -154 32.5 t-118.5 78t-84.5 113t-52.5 137t-21.5 150.5z" />
<glyph unicode="H" d="M32 0l253 1456h170l-109 -626h578l109 626h171l-253 -1456h-171l117 673h-578l-117 -673h-170z" />
<glyph unicode="I" d="M64 0l28 160h331l197 1135h-332l29 161h855l-29 -161h-338l-197 -1135h339l-28 -160h-855z" />
<glyph unicode="J" d="M63 422l182 -1v-15q0 -48 11 -92q13 -50 41 -89t72 -63t106 -25h10q60 0 111 23q56 24 99 66.5t71.5 98.5t39.5 118l173 1013h185l-173 -1013q-15 -99 -61 -184t-115.5 -148t-159.5 -98q-85 -33 -181 -33h-11q-97 2 -171 36.5t-124.5 94t-77 139.5t-27.5 172z" />
<glyph unicode="K" d="M62 0l253 1456h185l-123 -700l158 165l507 535h234l-614 -646l381 -810h-207l-308 674l-197 -191l-84 -483h-185z" />
<glyph unicode="L" d="M88 0l252 1456h181l-225 -1299h691l-28 -157h-871z" />
<glyph unicode="M" d="M39 0l253 1456h219l103 -726l374 726h228l-252 -1456h-176l102 590l116 582l-389 -767h-105l-107 772l-91 -605l-99 -572h-176z" />
<glyph unicode="N" d="M34 0l253 1456h178l362 -1094l193 1094h183l-253 -1456h-178l-362 1096l-193 -1096h-183z" />
<glyph unicode="O" d="M104 497q0 10 -1 20q0 66 9 127l26 166q13 77 36.5 156.5t59 154t84 140.5t110.5 115q60 48 136 75q70 25 154 25h12q87 -2 152.5 -32.5t112.5 -80.5t76.5 -116t44 -139.5t16.5 -149.5v-20q0 -66 -9 -128l-26 -165q-13 -77 -36.5 -156.5t-59 -154t-83.5 -140.5t-110 -114 q-60 -48 -136 -75q-70 -25 -154 -25h-12q-86 2 -151.5 32.5t-112.5 80.5t-77 116t-44.5 139t-16.5 149zM280 544q-1 -20 -1 -41q0 -34 3 -68q5 -55 19 -107t42 -92.5t70.5 -66t104.5 -27.5h11q59 0 107 20q53 22 94 60t72 89t53.5 107.5t37.5 114.5t24 111l27 170 q6 46 10 100q2 24 1 47q-1 29 -3 61q-4 54 -18 106t-41.5 92t-70 65t-104.5 27h-11q-59 0 -107 -20q-52 -22 -93.5 -60t-73 -88.5t-54.5 -107t-38 -114.5t-24 -110l-28 -169q-6 -45 -9 -99z" />
<glyph unicode="P" d="M81 0l252 1456l447 -1q92 -3 169.5 -34.5t132.5 -87.5q54 -55 82 -133q21 -60 21 -131q0 -21 -2 -42q-9 -105 -55 -187.5t-118.5 -139.5t-165 -87t-192.5 -30l-289 1l-102 -584h-180zM389 736l268 -2q66 0 125 20.5t105.5 58t77 91.5t38.5 121q3 20 3 40q0 35 -8 67 q-12 50 -42 86.5t-75.5 59t-104.5 25.5l-288 1z" />
<glyph unicode="Q" d="M94 513v14q0 71 9 136l20 128q13 79 37.5 161t61 158.5t86 144.5t113 117.5t141.5 77.5q72 26 158 26h12q89 -2 156.5 -33.5t115.5 -83t78 -119.5t44.5 -143.5t15.5 -154.5v-14q0 -71 -9 -137l-20 -127q-14 -84 -39 -166.5t-63.5 -157.5t-91.5 -141t-123 -118l207 -214 l-135 -113l-235 243q-32 -8 -65 -12q-26 -3 -52 -3h-13q-89 2 -156 33t-114.5 82.5t-77.5 119.5t-45 143t-16 153zM272 558q-1 -24 -1 -49q0 -32 3 -64q4 -57 18 -110.5t42.5 -95.5t73 -68.5t109.5 -28.5h11q63 0 113 20q55 22 98 61.5t75 92.5t55 111.5t38.5 119 t24.5 116.5l21 131q7 48 11 104q1 26 1 52q0 31 -2 61q-4 57 -18 110.5t-42 95t-73 67.5t-110 28h-11q-61 0 -111 -20q-55 -23 -98.5 -62.5t-76 -92t-56 -111t-39 -118.5t-24.5 -115l-21 -131q-7 -47 -11 -104z" />
<glyph unicode="R" d="M71 0l253 1456l403 -1q95 -3 175 -33t136 -84q56 -56 84 -134q22 -61 22 -135q0 -21 -1 -42q-6 -75 -34 -136t-72.5 -110t-102 -86t-123.5 -64l195 -618l-2 -13h-191l-173 594h-286l-103 -594h-180zM380 746l230 -2q64 0 124 19.5t107.5 56t79.5 89.5t40 120q2 21 2 40 q-1 39 -9 71q-14 50 -45 85t-78.5 55t-107.5 23l-246 1z" />
<glyph unicode="S" d="M85 421h183q3 -63 23.5 -114.5t56 -88.5t86 -58.5t114.5 -22.5h7q52 -1 104 13q55 14 100 44.5t75 76t37 105.5q2 15 2 28q0 42 -17 76q-22 44 -60.5 75.5t-88 53.5t-96.5 40q-71 27 -141 64t-124 87q-55 52 -87 118q-28 58 -28 130q0 11 1 23q6 95 52 171t117.5 129 t159.5 80q82 25 165 25h12q94 -2 173 -36t135 -92q57 -58 88 -138q28 -72 28 -158v-16h-184q-3 58 -18.5 108.5t-46 88.5t-76 60.5t-108.5 24.5h-6q-51 0 -101 -16q-53 -16 -96 -47.5t-71.5 -77t-34.5 -103.5l-2 -24q0 -43 18 -75q22 -41 61 -70.5t86.5 -50.5t92.5 -37 q74 -27 145.5 -65.5t126.5 -91.5q54 -52 86 -122q26 -58 27 -132q0 -14 -1 -28q-7 -98 -55 -173.5t-121 -126t-163 -75.5q-83 -23 -167 -23h-13q-96 1 -179.5 33.5t-146 90t-97.5 138.5q-33 77 -33 168v11z" />
<glyph unicode="T" d="M194 1298l28 158h1049l-28 -158h-436l-225 -1298h-176l225 1298h-437z" />
<glyph unicode="U" d="M115 469l170 987h172l-165 -987q-3 -26 -3 -51q0 -33 5 -66q9 -58 36 -105t72.5 -77.5t112.5 -32.5h10q65 -1 119 25q58 28 102 75t72 108t40 125l172 986h175l-167 -985q-15 -100 -61 -190t-116 -157.5t-161 -106.5q-87 -37 -187 -37h-10q-100 2 -177 43.5t-127.5 109 t-72.5 155.5q-15 58 -15 119q0 31 4 62z" />
<glyph unicode="V" d="M205 1456h188l149 -1156l514 1156h198l-673 -1456h-157z" />
<glyph unicode="W" d="M149 0l56 1456h170l-58 -1055l345 1055h158l15 -1060l274 1060h174l-400 -1456h-184l-9 1093l-354 -1093h-187z" />
<glyph unicode="X" d="M-15 0l543 743l-294 713h201l211 -570l393 570h223l-530 -731l302 -725h-201l-220 581l-404 -581h-224z" />
<glyph unicode="Y" d="M212 1456h196l194 -730l448 730h215l-605 -924l-95 -532h-168l94 554z" />
<glyph unicode="Z" d="M19 0l21 153l877 1145h-686l26 158h896l-21 -150l-880 -1149h727l-25 -157h-935z" />
<glyph unicode="[" d="M270 -312l309 1976h386l-25 -152h-214l-261 -1672h215l-24 -152h-386z" />
<glyph unicode="\" d="M376 1456h155l316 -1581h-155z" />
<glyph unicode="]" d="M250 -312l24 152h215l261 1672h-215l24 152h386l-309 -1976h-386z" />
<glyph unicode="^" d="M232 677l446 779h125l174 -779h-158l-108 486l-1 69l-28 -70l-273 -485h-177z" />
<glyph unicode="_" d="M20 -151l26 151h891l-27 -151h-890z" />
<glyph unicode="`" d="M547 1481h204l129 -266h-134z" />
<glyph unicode="a" d="M101 292q4 70 28.5 124t63.5 94.5t90 68.5t108.5 45.5t119 25t121.5 7.5l206 -1l13 86q2 16 2 30q1 33 -9 60q-14 39 -42 66t-68.5 41t-89.5 15h-8q-38 0 -76 -9q-42 -10 -76.5 -31t-59.5 -53.5t-35 -77.5l-181 -1q9 82 53 142.5t109 100.5q64 39 141 59q73 19 144 19h7 q82 -2 153 -26t121.5 -70.5t76.5 -113.5q19 -50 19 -111q0 -21 -2 -43l-84 -503q-10 -58 -10 -114q0 -53 13 -105l-2 -17h-183q-8 30 -8 59t3 59q-71 -63 -155 -101q-79 -36 -170 -36h-10q-68 1 -128.5 23t-105 62t-68.5 97q-21 49 -22 109q0 10 1 20zM285 319 q-2 -13 -2 -26q0 -27 8 -50q11 -33 35 -55.5t58 -34.5t75 -13h8q91 0 171 44q83 46 139 121l39 220l-155 1q-55 0 -117.5 -7t-117.5 -29t-94 -63t-47 -108z" />
<glyph unicode="b" d="M65 0l267 1536h181l-108 -571q62 69 139 104q73 33 161 33h10q73 -2 128.5 -26t95 -64.5t64 -93.5t37 -113.5t14.5 -124.5v-28q0 -49 -5 -96l-2 -21q-9 -67 -27.5 -134.5t-47.5 -129.5t-69 -116t-92 -94t-116 -62q-59 -20 -128 -20h-13q-88 2 -162 36.5t-123 108.5 l-36 -124h-168zM299 303q27 -75 82 -120t138 -47h9q77 0 135 34q61 36 103 93.5t66 129.5t34 143l3 21q5 45 5 93v36q-2 68 -23.5 124.5t-66.5 94.5t-123 40h-7q-43 0 -80 -11q-40 -12 -74.5 -34.5t-64 -53.5t-54.5 -67z" />
<glyph unicode="c" d="M127 517l5 43q9 73 32 142t58.5 130t83 111.5t106.5 86.5t128 55q62 17 132 17h15q84 -2 155 -32t122 -82q50 -50 77 -122q24 -62 23 -135v-22l-170 1v12q0 43 -12 81q-14 43 -42.5 75.5t-69.5 51.5t-93 21h-14q-75 -1 -133 -31q-64 -34 -108.5 -89.5t-72 -126.5 t-37.5 -144l-5 -42q-5 -43 -5 -88t7.5 -87.5t23.5 -81t43 -67t65.5 -46.5t91.5 -19h6q46 -1 91 13q48 14 87.5 42t67.5 67.5t39 88.5l171 1q-9 -83 -54 -150.5t-111 -115t-146 -73.5q-74 -24 -148 -23h-11q-114 3 -194 49t-129 120.5t-67 170.5q-12 62 -12 126q0 36 4 72z " />
<glyph unicode="d" d="M121 401q-1 21 -1 41q0 41 4 80l2 21q8 67 27 135t49 131t71.5 117t94 94t117.5 62q60 20 129 20h13q81 -2 151 -32t121 -96l104 562h181l-267 -1536h-164l19 114q-62 -68 -140 -102q-73 -33 -161 -32h-10q-70 2 -124.5 26.5t-94 65.5t-65 94.5t-39.5 113t-17 121.5z M299 438q0 -44 6.5 -86.5t20.5 -80.5t39 -67.5t62 -47.5t88 -19h11q82 0 144 41q66 44 117 113l87 505q-29 69 -82.5 108.5t-130.5 41.5h-13q-76 0 -133 -33q-62 -36 -105 -94.5t-68.5 -131t-34.5 -144.5l-3 -21q-5 -40 -5 -84z" />
<glyph unicode="e" d="M117 500l5 43q8 71 31 140.5t59.5 132.5t85 116t108.5 92q58 38 128 59q63 19 134 19h13q112 -3 189 -48.5t122 -119.5t60 -168q8 -51 8 -103q0 -45 -6 -92l-13 -83h-745q-3 -26 -3 -51q-1 -40 7 -78q12 -63 44.5 -113t85.5 -81t126 -33h13q87 0 161 37q80 40 143 106 l104 -88q-37 -52 -86.5 -91.5t-106.5 -65.5t-119 -38q-57 -12 -116 -12h-9q-110 2 -193.5 45t-137.5 114q-53 71 -77 164q-17 67 -17 140q0 28 2 57zM318 640l564 -2l4 18q4 26 4 51q0 28 -5 56q-10 52 -38 93t-72 66.5t-103 27.5h-14q-62 0 -112 -24q-56 -26 -99.5 -70 t-75.5 -101t-53 -115z" />
<glyph unicode="f" horiz-adv-x="1203" d="M205 939l26 143h288l11 76q13 96 51.5 174.5t99 134t141.5 85.5q79 28 175 28h7q65 -1 127.5 -13t125.5 -28l-37 -152q-49 17 -99.5 27t-102.5 11h-7q-61 0 -110 -17q-52 -18 -91 -52.5t-63.5 -84t-34.5 -112.5l-11 -77h405l-25 -143h-404l-163 -939h-182l163 939h-290z " />
<glyph unicode="g" d="M45 -238l103 111q47 -67 111.5 -107t148.5 -42h12q62 0 114 18q56 21 98.5 59t71 92t41.5 119l20 95q-63 -63 -138 -96q-71 -31 -156 -31h-10q-71 2 -125.5 26.5t-94 65t-65 94t-39 113t-16.5 121.5q-1 19 -1 38q0 43 5 84l2 21q9 67 27.5 135.5t48.5 131.5t70.5 117 t93.5 94t117 62q60 20 130 20h13q85 -2 157.5 -35.5t120.5 -104.5l35 119h166l-180 -1059q-14 -101 -56.5 -185t-109 -143.5t-154.5 -92.5q-80 -29 -174 -29h-18q-54 1 -107 14t-101 37t-89 58.5t-72 79.5zM300 438q0 -44 6 -86t20.5 -80.5t39.5 -68t61.5 -47.5t88.5 -20h8 q85 0 148 42q67 45 117 116l85 499q-28 71 -81.5 111t-131.5 42h-13q-76 0 -133 -33q-62 -36 -104.5 -94.5t-67.5 -131t-35 -144.5l-3 -21q-5 -40 -5 -84z" />
<glyph unicode="h" d="M64 0l267 1536h181l-116 -616q33 40 71.5 74t82.5 58t92 38q45 13 95 12h7q92 -2 154 -37t98 -93t48 -134q7 -43 7 -88q0 -34 -4 -69l-114 -681h-181l115 684q3 26 3 51t-3 49q-6 46 -28 81.5t-60.5 56t-97.5 22.5h-7q-42 0 -80 -10q-42 -12 -79.5 -33.5t-71 -50.5 t-61.5 -63l-137 -787h-181z" />
<glyph unicode="i" d="M92 0l29 160h356l132 761h-357l28 161h538l-160 -922h343l-29 -160h-880zM663 1363q1 48 31 79.5t78 33.5h5q21 0 39 -7q20 -8 34 -22t21.5 -34t7.5 -44q0 -48 -30 -77.5t-78 -31.5h-6q-43 0 -71 26q-30 28 -31 77z" />
<glyph unicode="j" d="M35 -422l26 154q45 -8 89.5 -11.5t89.5 -4.5h6q61 0 110 19q52 20 89 56.5t60.5 87.5t32.5 113l158 929h-351l28 161h531l-185 -1089q-14 -98 -52 -178t-98 -136.5t-141.5 -87t-182.5 -30.5q-54 0 -105.5 4.5t-104.5 12.5zM777.5 1443q29.5 31 77.5 33h6q20 0 38 -6 q20 -8 34.5 -22.5t22.5 -34t8 -43.5q-1 -48 -31 -78t-78 -32h-6q-44 0 -72 27q-29 28 -29 74q0 51 29.5 82z" />
<glyph unicode="k" d="M66 0l267 1536h182l-162 -930l133 123l402 353h236l-514 -460l376 -622h-215l-297 503l-163 -137l-63 -366h-182z" />
<glyph unicode="l" d="M92 0l29 160h356l211 1215h-358l29 161h538l-239 -1376h343l-29 -160h-880z" />
<glyph unicode="m" d="M-14 0l187 1082l161 1l-20 -103q42 57 96 90q52 32 122 32h4q31 0 59 -6.5t51.5 -20.5t41 -36t26.5 -52q42 52 95 83.5t123 31.5q63 -1 105 -26t65.5 -66.5t31.5 -93.5q4 -32 4 -64q0 -22 -2 -44l-135 -808h-172l136 811q3 28 0 52.5t-13.5 43t-31 29t-51.5 10.5 q-54 0 -94 -30t-54 -82l-142 -834h-172l137 812q3 27 0.5 50.5t-13 41.5t-29.5 29t-49 12h-4q-47 -1 -81 -21q-35 -22 -61 -62l-149 -862h-172z" />
<glyph unicode="n" d="M64 0l188 1082l161 1l-23 -161q33 40 72 74t83 58t93 36q45 12 95 12h8q91 -2 153 -36t98 -90q38 -57 50 -132q7 -44 7 -90q0 -33 -4 -67l-115 -687h-181l115 684q3 29 3 55q-1 24 -3 47q-6 47 -27 82t-60 55.5t-99 21.5h-7q-43 1 -83 -11q-42 -12 -79 -35t-69.5 -54.5 t-59.5 -67.5l-135 -777h-181z" />
<glyph unicode="o" d="M107 522l3 22q9 73 31.5 143.5t57.5 133t82.5 115t106.5 90.5q58 38 128 58q63 19 135 18h14q114 -3 194.5 -50.5t129.5 -123.5t67 -174q12 -61 12 -125q0 -37 -4 -75l-2 -23q-14 -109 -58.5 -210t-115.5 -177q-72 -77 -168 -122q-90 -42 -199 -42h-15 q-113 3 -193.5 49.5t-129.5 122.5t-68 172q-12 61 -12 124q0 37 4 74zM284 435q0 -45 7.5 -88t23.5 -82t43 -68.5t65.5 -47.5t90.5 -20h13q75 0 134 33q64 36 109.5 94t72.5 130.5t38 144.5l2 22q4 38 4 79q1 26 -1 53q-4 69 -29.5 127.5t-73.5 97t-126 41.5h-13 q-76 1 -135 -33q-64 -36 -109 -95.5t-72 -133t-37 -145.5l-3 -22q-5 -38 -5 -79q1 -4 1 -8z" />
<glyph unicode="p" d="M-9 -416l260 1498l164 1l-19 -119q63 69 142 104q74 34 163 34h10q74 -2 129 -26t94.5 -64.5t64 -93.5t37 -113t14.5 -123v-29q0 -49 -5 -96l-2 -21q-12 -100 -47.5 -200.5t-96 -180.5t-147.5 -129q-84 -47 -193 -47h-9q-82 2 -155 31.5t-126 94.5l-97 -521h-181z M292 275q60 -140 213 -145h9q78 0 138 34q62 36 105.5 95t69 132t35.5 145l2 21q5 41 5 84q0 22 -1 45q-4 67 -27 124t-69 95t-124 40h-8q-80 0 -142 -39q-65 -42 -115 -108z" />
<glyph unicode="q" d="M121 399q-1 19 -1 38q0 43 5 85l2 21q9 69 28 137.5t49 131.5t71 117t94 93t119 60q59 20 131 20h13q81 -2 151.5 -32t121.5 -96l32 108h168l-260 -1498h-181l98 514q-63 -59 -136 -90q-69 -28 -150 -28h-11q-72 2 -127 26t-95 64.5t-66 93.5t-39.5 112.5t-16.5 122.5z M300 437.5q0 -44.5 6.5 -87.5t21 -82t39.5 -69t62 -48.5t89 -19.5h7q38 0 72 9q37 11 70 30t62 45.5t55 58.5l94 536q-32 66 -85 102.5t-126 38.5h-13q-76 0 -134 -33q-64 -37 -107.5 -96.5t-69.5 -133t-35 -145.5l-3 -21q-5 -40 -5 -84.5z" />
<glyph unicode="r" d="M215 0l187 1082h172l-30 -172q38 44 81 80t91 61.5t101.5 39t113.5 13.5q48 -1 96 -6.5t94 -22.5l-46 -180q-48 11 -96 18t-97 8h-4q-123 0 -212 -58q-90 -59 -150 -168l-120 -695h-181z" />
<glyph unicode="s" d="M126 334l180 -1q1 -52 20 -90t51 -62.5t75 -37t92 -12.5h9q36 0 76 7q45 8 85 26.5t68.5 50.5t35.5 79q1 10 1 20q0 33 -16 56q-21 30 -55.5 49t-75.5 30.5t-74 19.5q-60 15 -125 37t-119 57t-88 87q-31 48 -30 116v12q2 55 22.5 100.5t53.5 82t76.5 63.5t91.5 44 q50 18 100 26q45 8 89 8h10q76 -2 146.5 -24t123.5 -64q53 -44 84 -106q30 -61 30 -140v-5l-179 1q0 45 -17 79t-46.5 57.5t-68 35.5t-80.5 13h-8q-36 0 -74 -8q-42 -9 -79.5 -28.5t-63.5 -51t-32 -76.5q-1 -10 -1 -20q0 -31 16 -53q20 -28 53 -45.5t72.5 -27.5t72.5 -17 q41 -10 85 -23t86 -31t79.5 -41.5t64.5 -55t42 -72.5q13 -36 13 -80v-12q-4 -87 -48 -150t-110 -103t-146 -58q-72 -17 -141 -16h-15q-80 1 -154.5 24t-132.5 68q-59 44 -93 110q-33 62 -32 143v9z" />
<glyph unicode="t" d="M196 939l25 143h275l46 262h182l-46 -262h400l-25 -143h-400l-98 -589q-2 -21 -3 -41q0 -22 4 -41q6 -38 22.5 -66t48 -45t79.5 -18h18q46 0 92 8q54 10 108 22l17 -133q-63 -35 -140 -46q-65 -9 -126 -9h-22q-81 1 -137 31.5t-90 81t-46 116.5q-8 43 -9 89q0 26 3 52 l98 588h-276z" />
<glyph unicode="u" d="M150 274q-4 40 -5 80q0 42 5 85l108 643h181l-107 -646q-6 -50 -7 -102v-7q-1 -49 13 -89q14 -43 48.5 -71t97.5 -30h13q92 -1 164 41q77 44 130 127l135 777h182l-188 -1082h-163l23 149q-64 -79 -147 -125q-80 -44 -179 -44h-9q-97 2 -158.5 42.5t-95 105t-41.5 146.5z " />
<glyph unicode="v" d="M174 1082l174 1l176 -817l5 -68l29 69l422 815h192l-598 -1082h-138z" />
<glyph unicode="w" d="M132 1082h156l3 -701l-6 -138l55 159l284 680h117l47 -702l-2 -154l53 158l239 698h164l-411 -1082h-142l-50 673l3 154l-58 -174l-273 -653h-143z" />
<glyph unicode="x" d="M6 0l495 555l-303 527h197l214 -400l343 400h224l-483 -543l312 -539h-196l-226 411l-354 -411h-223z" />
<glyph unicode="y" d="M-28 -424l41 153q22 -2 44 -5t43 -3q39 1 72 19t60 45t49 59.5t41 61.5l103 156l-271 1020h193l169 -707l21 -120l464 827h211l-748 -1250q-30 -52 -68 -101t-84.5 -87.5t-102 -61t-120.5 -22.5q-29 0 -58.5 5.5t-58.5 10.5z" />
<glyph unicode="z" d="M61 0l23 144l743 785h-612l24 153h855l-22 -139l-751 -792h663l-25 -151h-898z" />
<glyph unicode="{" d="M308 542l15 144q138 2 218.5 69.5t100.5 206.5l22 170q12 92 44.5 174.5t86.5 145.5t130 102.5t175 45.5l10 -117q-73 -5 -120 -37t-76.5 -81.5t-44.5 -110.5t-23 -122l-22 -170q-17 -131 -88 -216.5t-191 -136.5q48 -26 82 -62.5t54 -80.5t26.5 -94.5t1.5 -103.5 l-21 -170q-6 -50 -7 -108t12.5 -108.5t47 -87t96.5 -44.5l-25 -115q-89 6 -151 49.5t-99 109.5t-50.5 146t-5.5 159l22 170q7 64 -2 113.5t-35.5 84t-71.5 53.5t-111 22z" />
<glyph unicode="|" d="M367 -398l290 1854h146l-290 -1854h-146z" />
<glyph unicode="}" d="M178 -252q67 4 113.5 38t77.5 84.5t48 111t26 117.5l22 169q17 130 87 215.5t190 135.5q-48 26 -81.5 63t-53.5 81.5t-26.5 95t-1.5 103.5l22 171q4 36 7.5 74t2 75t-9 71t-25.5 60.5t-48 44.5t-75 23l29 114q90 -6 151.5 -49t97.5 -108.5t47.5 -145.5t2.5 -160l-21 -171 q-14 -129 37.5 -197.5t182.5 -74.5l-15 -144q-138 -4 -219 -71t-100 -206l-22 -169q-12 -91 -45.5 -173t-88 -145.5t-130 -103.5t-172.5 -46z" />
<glyph unicode="~" d="M28 473q7 65 32.5 125t67 106t98 73t127.5 26q88 -1 161.5 -41.5t136.5 -98.5q21 -19 42.5 -37t45.5 -32t50.5 -22.5t55.5 -8.5q40 0 72.5 17t56.5 44.5t39.5 62t23.5 70.5l121 -15q-6 -65 -30 -126.5t-65 -109.5t-98 -77t-128 -28q-45 0 -85 11.5t-76.5 30.5t-70 44.5 t-65.5 54.5q-20 18 -42 35.5t-46 32t-50.5 23t-54.5 8.5q-40 0 -72 -16t-55 -41.5t-38.5 -58.5t-22.5 -69z" />
<glyph unicode="&#xa0;" />
<glyph unicode="&#xa1;" d="M337 -372l171 983h181l-171 -983h-181zM551 987q1 50 31.5 82.5t80.5 34.5q25 1 45.5 -7t35.5 -23t23 -36t8 -45q-2 -49 -33.5 -80t-79.5 -33q-24 -1 -44.5 6.5t-35.5 22t-23 34.5t-8 44z" />
<glyph unicode="&#xa2;" d="M131 517l5 43q12 99 49.5 189.5t97 163t140 121.5t179.5 63l39 221h181l-40 -228q66 -15 120 -49t92 -83.5t57.5 -112.5t16.5 -136l-170 1q2 50 -12 93t-42.5 75.5t-69.5 51.5t-93 21q-83 3 -146.5 -30.5t-108.5 -89.5t-72.5 -127t-37.5 -144l-5 -42q-5 -43 -5 -88 t7.5 -87.5t23.5 -81t43 -67t65.5 -46.5t91.5 -19q49 -1 97 13.5t87.5 42t67.5 67t39 88.5l171 1q-9 -75 -46.5 -138t-94 -109.5t-126.5 -75t-142 -36.5l-39 -227h-181l42 242q-81 23 -138.5 74t-92 121t-47 153.5t-3.5 171.5z" />
<glyph unicode="&#xa3;" d="M9 0l27 150l65 -1q36 14 61 41.5t41.5 62.5t26 73.5t14.5 73.5l30 226h-160l26 152h156l33 260q12 97 53.5 178t106.5 139.5t150 90.5t184 30q87 -2 153.5 -31.5t111.5 -80.5t66 -121t17 -155l-182 1q3 50 -6.5 93t-33.5 74.5t-62.5 49.5t-91.5 20q-61 2 -110.5 -21.5 t-85.5 -64t-58.5 -93t-30.5 -107.5l-34 -262h311l-27 -152h-306l-30 -225q-10 -71 -35.5 -134t-71.5 -118l720 2l-27 -151h-1001z" />
<glyph unicode="&#xa4;" d="M16 118l128 108q-21 69 -27.5 139.5t2.5 142.5q24 176 137 315l-96 129l142 128l90 -121q66 42 137.5 66.5t150.5 23.5q72 -1 138.5 -25t122.5 -69l141 126l112 -146l-142 -121q23 -71 31 -144t-2 -148q-11 -83 -42.5 -157t-80.5 -141l92 -124l-143 -127l-82 109 q-69 -48 -144 -76t-160 -26q-76 1 -145.5 27t-128.5 76l-120 -109zM287 506q-8 -62 4 -124t43 -113t81.5 -84t119.5 -35q76 -2 141 30t114.5 85t81 121t40.5 138q7 61 -4.5 123.5t-42 113t-80.5 83.5t-119 35q-76 2 -141.5 -29.5t-115.5 -84.5t-81.5 -121t-40.5 -138z" />
<glyph unicode="&#xa5;" d="M86 326l21 120h368l30 169h-369l21 121h313l-284 720h195l240 -676l475 676h218l-533 -720h303l-22 -121l-367 3l-6 -7l-34 -165h379l-22 -120h-376l-57 -326h-181l57 326h-369z" />
<glyph unicode="&#xa6;" d="M344 -270l138 791h181l-138 -791h-181zM512 698l132 758h181l-132 -758h-181z" />
<glyph unicode="&#xa7;" d="M-36 -64l185 2q-5 -66 13 -118t54 -88t89 -55t118 -20q53 -1 108.5 11t103 38.5t80.5 69t41 101.5q5 40 -5.5 71t-32 55.5t-51.5 43t-63.5 33t-67.5 25.5t-64 21q-78 26 -151.5 59t-129 80.5t-86.5 115t-23 162.5q4 52 23 95.5t48.5 78.5t68.5 63t85 50q-54 57 -73 126 t-13 146q5 66 29.5 120t63 96t88 72.5t106 50t117 28t119.5 7.5q100 -2 180.5 -31.5t135.5 -84t82.5 -134t21.5 -181.5h-180q4 61 -10.5 111.5t-46.5 87.5t-80 58t-111 23q-54 1 -109.5 -10.5t-102.5 -38t-79.5 -69t-41.5 -102.5q-6 -42 4 -74t30.5 -56.5t49.5 -42.5 t62.5 -32t68.5 -25t67 -21q77 -26 151 -58.5t130 -80t87 -115t24 -161.5q-5 -54 -23.5 -97.5t-49 -78.5t-70.5 -62.5t-86 -49.5q56 -56 76.5 -124.5t14.5 -146.5q-8 -101 -57 -173t-122.5 -117.5t-164 -66.5t-180.5 -19q-100 2 -185 30t-146 82t-93 134t-27 186zM264 545 q-9 -64 15.5 -106t68 -70t98 -46t103.5 -34q38 -12 75 -25t74 -27q37 11 70 28.5t59.5 42t44 56.5t23.5 72t-4.5 72t-32.5 57t-53 44t-65 34t-68.5 26.5l-64.5 21.5q-38 12 -76 25t-75 27q-76 -21 -128 -69t-64 -129z" />
<glyph unicode="&#xa8;" d="M399 1369q0 46 29.5 76.5t76.5 32.5q46 1 77 -28.5t30 -76.5q-1 -46 -31 -76t-76 -32q-47 -1 -77 28t-29 76zM815 1367q1 46 30.5 77t76.5 33q47 1 77 -28.5t30 -77.5q-1 -46 -31 -76t-77 -32q-46 -1 -76 28t-30 76z" />
<glyph unicode="&#xa9;" d="M78 535q8 75 33 147t65 135.5t93.5 116.5t117 91t135.5 58.5t151 18.5q74 -1 137.5 -23.5t114.5 -60.5t89.5 -90t62.5 -113t33 -128.5t2 -136.5q-8 -76 -33 -148t-65 -136t-93 -117.5t-116.5 -91.5t-136 -59t-151.5 -19q-112 2 -198.5 50t-143.5 125.5t-82.5 176.5 t-14.5 204zM165 534q-10 -86 9.5 -169t65 -148t116.5 -106t164 -43q100 -3 187.5 36.5t154.5 107t109.5 155.5t53.5 183q10 86 -10 168t-66 146.5t-116.5 104.5t-163.5 42q-66 2 -127 -15t-115 -49t-98.5 -77t-78.5 -98.5t-56 -114t-29 -123.5zM328 498l8 87 q6 58 27.5 111.5t57.5 94t86.5 64t113.5 22.5q111 -2 168 -65t52 -172l-109 1q4 63 -22 101t-95 38q-41 0 -71 -17t-50.5 -44t-32.5 -61.5t-16 -70.5l-8 -90q-2 -32 1.5 -65.5t16.5 -61.5t37 -46t63 -19q35 -1 60 9t43 28t29.5 43.5t18.5 56.5l107 1q-14 -111 -81 -174.5 t-182 -60.5q-61 1 -104.5 26t-70.5 65t-38.5 92t-8.5 107z" />
<glyph unicode="&#xaa;" d="M330 911q3 70 37 116t85 73.5t112.5 38.5t120.5 11l138 -1l8 53q3 27 -0.5 51.5t-14.5 42.5t-31.5 28.5t-50.5 11.5q-57 2 -98.5 -23t-57.5 -81l-156 11q9 61 39.5 105.5t75 73.5t99.5 42t112 12q62 -1 110 -21.5t79.5 -56.5t46 -86.5t8.5 -111.5l-49 -314 q-8 -46 -9.5 -90.5t5.5 -90.5l-158 -1q-6 49 -3 97q-45 -52 -103 -81t-128 -29q-50 0 -91 15.5t-70 44t-44 69t-12 91.5zM493 915q-3 -24 5 -41t23 -27.5t35 -15.5t41 -5q56 0 108 28t85 73l19 110h-129q-29 -1 -60 -7.5t-58 -20.5t-46 -37t-23 -57z" />
<glyph unicode="&#xab;" d="M189 505l2 20l348 389h151l-328 -409l177 -387h-124zM514 505l2 20l348 389h151l-328 -409l177 -387h-124z" />
<glyph unicode="&#xac;" d="M189 639l29 161h806l-74 -425h-181l47 264h-627z" />
<glyph unicode="&#xad;" horiz-adv-x="1203" d="M204 561l27 152h743l-27 -152h-743z" />
<glyph unicode="&#xae;" d="M75 533q7 75 32.5 147t65 136t93 117t117 91t136 58.5t151.5 18.5q112 -3 198.5 -50.5t143.5 -124.5t82 -175.5t15 -203.5q-8 -75 -33 -147t-65 -135.5t-93 -117t-116.5 -91.5t-136 -58.5t-151.5 -18.5q-111 3 -197.5 50.5t-143.5 124.5t-83 175.5t-15 203.5zM162 532 q-10 -86 10 -168.5t66 -147t116.5 -105t163.5 -42.5q66 -2 127 15.5t115 49.5t98.5 77t78.5 99t56 114.5t29 123.5q10 86 -9.5 168t-65.5 146.5t-117 105t-164 42.5q-100 3 -187 -36t-154 -105.5t-110 -154t-53 -182.5zM330 232l100 635l199 -1q43 -1 82 -12t68.5 -33 t45.5 -56.5t13 -83.5q-3 -33 -16.5 -59t-35 -45.5t-48.5 -33.5t-55 -25l95 -286h-103l-77 253h-121l-41 -253h-106zM491 582h111q22 1 44 7t40 17t31 28.5t17 41.5q5 28 -2.5 46t-22.5 28t-36.5 14t-45.5 5l-106 1z" />
<glyph unicode="&#xaf;" d="M360 1313l23 143h694l-23 -143h-694z" />
<glyph unicode="&#xb0;" d="M457 1207q3 53 25.5 102.5t59.5 87t86 59.5t104 21q50 -1 90.5 -22.5t69 -56.5t43.5 -80t12 -93q-3 -53 -25 -101.5t-58 -85t-84 -58.5t-102 -21q-50 1 -92 21.5t-71.5 54.5t-45 78.5t-12.5 93.5zM579 1210q-2 -25 5 -47t21.5 -39t35.5 -27t47 -10q27 0 51.5 11.5t43 30 t30 42.5t13.5 51q2 24 -4 47t-19.5 41t-34 29t-46.5 11q-28 0 -53 -12t-44.5 -31.5t-31.5 -44.5t-14 -52z" />
<glyph unicode="&#xb1;" d="M96 1l27 151h811l-27 -151h-811zM167 703l24 152h373l65 412h164l-65 -412h353l-24 -152h-352l-65 -414h-165l66 414h-374z" />
<glyph unicode="&#xb2;" d="M335 667l21 116l316 265q21 18 45 39t46 45t38 51t20 56q7 48 -20 75t-74 28q-66 1 -105.5 -37t-53.5 -99l-155 -1q7 62 33.5 111t68.5 83.5t96 52.5t116 17q52 -1 99.5 -15.5t82.5 -43t55 -71.5t17 -100q-3 -49 -25 -91.5t-54.5 -79.5t-71 -69t-73.5 -59l-195 -145h379 l-23 -128h-583z" />
<glyph unicode="&#xb3;" d="M363 889h152q0 -55 35 -79.5t88 -25.5q28 0 55 7t49.5 21.5t38 36.5t19.5 52q4 31 -5.5 51.5t-28 32.5t-43 17t-51.5 6l-87 1l11 116l80 -1q27 1 55 8t51 21t39 35.5t20 52.5q3 25 -4.5 43.5t-22.5 30.5t-35.5 18t-43.5 6q-50 0 -88 -22.5t-54 -70.5h-156q6 57 33 98.5 t67.5 69t90.5 41t104 12.5q49 0 97.5 -13t86 -39.5t59.5 -67.5t19 -98q-2 -36 -16 -64t-36 -50t-49.5 -39.5t-57.5 -30.5q58 -21 87.5 -65t27.5 -106q-2 -63 -31.5 -108.5t-75 -75t-101.5 -43t-111 -12.5q-54 1 -103 16t-85.5 44t-58 72.5t-21.5 101.5z" />
<glyph unicode="&#xb4;" d="M487 1215l221 266h231l-302 -266h-150z" />
<glyph unicode="&#xb5;" d="M6 -416l260 1498h180l-102 -625q-4 -32 -6.5 -68.5t-0.5 -72.5t10 -68.5t25.5 -58t46.5 -41.5t73 -17q92 -4 162.5 34.5t118.5 116.5l139 800h182l-188 -1082h-162l19 116q-53 -66 -119.5 -102t-153.5 -35q-60 1 -115 17.5t-100 57.5l-89 -470h-180z" />
<glyph unicode="&#xb6;" d="M272 982q10 110 56.5 197.5t119.5 149t168 95t203 33.5l277 -1l-253 -1456h-181l90 520l-72 1q-101 3 -181 37.5t-133.5 95t-78 144t-15.5 184.5z" />
<glyph unicode="&#xb7;" d="M511 726q1 49 32 81.5t81 34.5q24 1 44.5 -7t35.5 -23t23 -35.5t8 -44.5q-1 -49 -32.5 -80.5t-79.5 -33.5q-24 -1 -45 7t-36 22t-23 34.5t-8 44.5z" />
<glyph unicode="&#xb8;" d="M279 -437l4 108q27 1 56.5 6t55.5 16.5t45 32t24 52.5q5 30 -8 46.5t-34.5 25t-47.5 11.5t-47 6l45 133h131l-21 -55q62 -15 94 -57t30 -106q-2 -65 -33.5 -106.5t-79.5 -66t-105 -34.5t-109 -12z" />
<glyph unicode="&#xb9;" d="M479 1206l23 135l355 113h22l-132 -789h-153l104 597z" />
<glyph unicode="&#xba;" d="M339 1024l13 116q9 74 41.5 136.5t82.5 107.5t115.5 69.5t141.5 22.5q72 -2 128 -28t93.5 -71t54.5 -105.5t10 -130.5l-13 -117q-9 -74 -41 -136t-81.5 -107t-114.5 -69t-141 -22q-72 2 -128.5 28t-94 70.5t-55 105t-11.5 130.5zM502 1022q-3 -38 3.5 -72.5t23.5 -61.5 t46.5 -43.5t71.5 -17.5q43 -1 77.5 14.5t59.5 42.5t40.5 63t21.5 76l13 119q3 37 -3.5 72t-24 62t-46.5 43.5t-71 17.5q-44 1 -78.5 -14t-59.5 -42t-40.5 -63t-21.5 -76z" />
<glyph unicode="&#xbb;" d="M150 152l328 408l-178 389h126l224 -387l-1 -20l-347 -390h-152zM484 152l328 408l-178 389h126l224 -387l-1 -20l-347 -390h-152z" />
<glyph unicode="&#xbc;" d="M167 1238l21 121l320 102h19l-118 -710h-138l94 537zM225 294l658 945l107 -71l-658 -945zM505 152l11 100l403 458h147l-76 -441h93l-20 -117h-93l-27 -152h-139l27 152h-326zM664 269h187l51 262l-19 -27z" />
<glyph unicode="&#xbd;" d="M154 1234l21 121l320 102h19l-118 -710h-138l94 537zM167 294l658 945l107 -71l-658 -945zM521 0l19 104l285 239q18 16 40 35t41.5 40.5t34 46t18.5 50.5q6 43 -18.5 67.5t-66.5 25.5q-59 0 -94.5 -34t-48.5 -89l-140 -1q7 56 30.5 100t61.5 75t86.5 47.5t104.5 15.5 q47 -1 89.5 -14t74 -38.5t49.5 -64.5t16 -90q-3 -44 -23 -82.5t-49 -71.5t-63.5 -62t-66.5 -53l-175 -131h341l-21 -115h-525z" />
<glyph unicode="&#xbe;" d="M106 945h137q0 -50 31.5 -72t79.5 -23q25 0 49.5 6.5t44.5 19.5t34 33t18 47q3 27 -5.5 45.5t-25 29.5t-38.5 15.5t-47 5.5l-78 1l10 104l72 -1q24 1 49.5 7.5t46 19t35 32t18.5 47.5q2 22 -4.5 38.5t-20 27.5t-32 16.5t-39.5 5.5q-45 0 -79 -20.5t-49 -63.5h-140 q5 51 29.5 88.5t61 62.5t81.5 37t93 11q45 0 88.5 -11.5t77 -35.5t53.5 -61t17 -88q-2 -33 -14.5 -58t-32 -45t-44.5 -35.5t-52 -27.5q52 -19 78.5 -58.5t25.5 -95.5q-2 -56 -28.5 -97t-67.5 -67.5t-91.5 -39t-99.5 -11.5t-93 14.5t-77 39.5t-52.5 65.5t-19.5 91.5zM289 293 l658 945l107 -71l-658 -945zM537 152l11 100l403 458h147l-76 -441h93l-20 -117h-93l-27 -152h-139l27 152h-326zM696 269h187l51 262l-19 -27z" />
<glyph unicode="&#xbf;" d="M94 -22q7 76 37 141t74.5 121t98.5 106t108 96q29 25 49.5 50.5t34 53t22 59t13.5 68.5l177 1q-6 -63 -19 -109.5t-35 -86t-55 -75.5t-79 -77q-38 -33 -78 -71t-74 -81t-58.5 -90.5t-31.5 -100.5q-6 -47 2 -86t30 -67.5t57.5 -45t84.5 -17.5q97 -2 163.5 52t85.5 148 l180 1q-10 -86 -48.5 -154t-97 -114.5t-134 -70.5t-160.5 -22q-83 2 -150.5 28t-114 74t-68.5 116t-14 153zM561 985q1 49 32 82t81 35q49 1 80.5 -30.5t30.5 -80.5t-32.5 -80t-80.5 -33q-24 -1 -44.5 6.5t-35.5 22t-23 34.5t-8 44z" />
<glyph unicode="&#xc0;" d="M-30 0l709 1456h152l195 -1456h-173l-46 377h-469l-180 -377h-188zM413 538h375l-76 630zM518 1827h204l129 -266h-134z" />
<glyph unicode="&#xc1;" d="M-30 0l709 1456h152l195 -1456h-173l-46 377h-469l-180 -377h-188zM413 538h375l-76 630zM687 1558l221 266h231l-302 -266h-150z" />
<glyph unicode="&#xc2;" d="M-30 0l709 1456h152l195 -1456h-173l-46 377h-469l-180 -377h-188zM413 538h375l-76 630zM493 1599l2 27l272 238h106l211 -239l-2 -27l-146 1l-118 150l-172 -149z" />
<glyph unicode="&#xc3;" d="M-30 0l709 1456h152l195 -1456h-173l-46 377h-469l-180 -377h-188zM413 538h375l-76 630zM455 1628q5 43 22 85t44.5 74.5t66 52t86.5 19.5q37 0 69 -16t63 -34.5t62.5 -34t68.5 -14.5q50 2 79 35.5t41 77.5l97 -29q-5 -44 -21.5 -84.5t-44 -72t-66 -50.5t-86.5 -19 q-38 0 -70 15.5t-62.5 34.5t-62 34.5t-68.5 14.5q-24 -1 -43.5 -10.5t-34 -25t-24.5 -35.5t-16 -41z" />
<glyph unicode="&#xc4;" d="M-30 0l709 1456h152l195 -1456h-173l-46 377h-469l-180 -377h-188zM413 538h375l-76 630zM485 1716q0 46 29.5 76.5t76.5 32.5q46 1 77 -28.5t30 -76.5q-1 -46 -31 -76t-76 -32q-47 -1 -77 28t-29 76zM901 1714q1 46 30.5 77t76.5 33q47 1 77 -28.5t30 -77.5 q-1 -46 -31 -76t-77 -32q-46 -1 -76 28t-30 76z" />
<glyph unicode="&#xc5;" d="M-30 0l709 1456h152l195 -1456h-173l-46 377h-469l-180 -377h-188zM413 538h375l-76 630zM607 1724q1 43 19 81t47 66.5t67.5 44.5t81.5 16q40 0 74 -15.5t58 -41.5t37 -61t12 -74q-2 -43 -19 -80t-45.5 -64.5t-66.5 -43t-81 -15.5q-40 0 -74 14.5t-59 39.5t-38.5 59 t-12.5 74zM705 1727q-3 -40 21 -70t66 -30q22 0 41.5 9t35 24.5t25 35.5t12.5 41q2 20 -3 38.5t-16 33t-27.5 23.5t-37.5 9q-23 0 -43.5 -9.5t-36 -25.5t-25.5 -36.5t-12 -42.5z" />
<glyph unicode="&#xc6;" d="M-78 0l796 1456h568l-27 -152h-327l-78 -471h292l-26 -151h-293l-91 -531h347l-27 -151h-516l60 353h-295l-182 -353h-201zM393 527h237l119 691z" />
<glyph unicode="&#xc7;" d="M102 477.5q-2 75.5 8 148.5l32 203q13 79 37.5 158t61 151.5t85.5 135t111.5 108t138.5 71t167 23.5q103 -2 179 -39.5t127 -100.5t77.5 -147t30.5 -180h-179q-3 60 -16 116t-41.5 100t-74 71.5t-113.5 29.5q-66 2 -119.5 -19t-96 -57.5t-74 -86.5t-55 -105.5t-39 -114 t-24.5 -112.5l-34 -206q-7 -47 -10 -101.5t2 -108.5t19.5 -104.5t42.5 -90t72 -64t107 -26.5q72 -3 128.5 21t99.5 66t72.5 99t47.5 121l174 3q-20 -99 -66 -184.5t-114.5 -147.5t-157 -96.5t-193.5 -31.5q-86 2 -152.5 30.5t-115 76t-79.5 110.5t-47.5 134t-18.5 146.5z M331 -437l4 108q27 1 56.5 6t55.5 16.5t45 32t24 52.5q5 30 -8 46.5t-34.5 25t-47.5 11.5t-47 6l45 133h131l-21 -55q62 -15 94 -57t30 -106q-2 -65 -33.5 -106.5t-79.5 -66t-105 -34.5t-109 -12z" />
<glyph unicode="&#xc8;" d="M72 0l253 1456h860l-28 -158h-679l-81 -468h590l-28 -157h-589l-90 -516h688l-28 -157h-868zM508 1827h204l129 -266h-134z" />
<glyph unicode="&#xc9;" d="M72 0l253 1456h860l-28 -158h-679l-81 -468h590l-28 -157h-589l-90 -516h688l-28 -157h-868zM677 1558l221 266h231l-302 -266h-150z" />
<glyph unicode="&#xca;" d="M72 0l253 1456h860l-28 -158h-679l-81 -468h590l-28 -157h-589l-90 -516h688l-28 -157h-868zM483 1599l2 27l272 238h106l211 -239l-2 -27l-146 1l-118 150l-172 -149z" />
<glyph unicode="&#xcb;" d="M72 0l253 1456h860l-28 -158h-679l-81 -468h590l-28 -157h-589l-90 -516h688l-28 -157h-868zM475 1716q0 46 29.5 76.5t76.5 32.5q46 1 77 -28.5t30 -76.5q-1 -46 -31 -76t-76 -32q-47 -1 -77 28t-29 76zM891 1714q1 46 30.5 77t76.5 33q47 1 77 -28.5t30 -77.5 q-1 -46 -31 -76t-77 -32q-46 -1 -76 28t-30 76z" />
<glyph unicode="&#xcc;" d="M64 0l28 160h331l197 1135h-332l29 161h855l-29 -161h-338l-197 -1135h339l-28 -160h-855zM458 1827h204l129 -266h-134z" />
<glyph unicode="&#xcd;" d="M64 0l28 160h331l197 1135h-332l29 161h855l-29 -161h-338l-197 -1135h339l-28 -160h-855zM627 1558l221 266h231l-302 -266h-150z" />
<glyph unicode="&#xce;" d="M64 0l28 160h331l197 1135h-332l29 161h855l-29 -161h-338l-197 -1135h339l-28 -160h-855zM433 1599l2 27l272 238h106l211 -239l-2 -27l-146 1l-118 150l-172 -149z" />
<glyph unicode="&#xcf;" d="M64 0l28 160h331l197 1135h-332l29 161h855l-29 -161h-338l-197 -1135h339l-28 -160h-855zM425 1716q0 46 29.5 76.5t76.5 32.5q46 1 77 -28.5t30 -76.5q-1 -46 -31 -76t-76 -32q-47 -1 -77 28t-29 76zM841 1714q1 46 30.5 77t76.5 33q47 1 77 -28.5t30 -77.5 q-1 -46 -31 -76t-77 -32q-46 -1 -76 28t-30 76z" />
<glyph unicode="&#xd0;" horiz-adv-x="1232" d="M-30 666l27 151h220l111 639l316 -1q144 -3 249.5 -58.5t171 -147t90 -212.5t7.5 -256l-15 -107q-22 -144 -82.5 -267t-154.5 -213.5t-219 -142t-276 -51.5h-339l115 666h-221zM286 151l133 -1q117 1 210 42t162 111.5t113 166t62 204.5l16 110q13 96 2.5 187.5 t-50.5 164t-111.5 118t-181.5 49.5l-155 1l-85 -487h215l-27 -151h-214z" />
<glyph unicode="&#xd1;" d="M34 0l253 1456h178l362 -1094l193 1094h183l-253 -1456h-178l-362 1096l-193 -1096h-183zM417 1628q5 43 22 85t44.5 74.5t66 52t86.5 19.5q37 0 69 -16t63 -34.5t62.5 -34t68.5 -14.5q50 2 79 35.5t41 77.5l97 -29q-5 -44 -21.5 -84.5t-44 -72t-66 -50.5t-86.5 -19 q-38 0 -70 15.5t-62.5 34.5t-62 34.5t-68.5 14.5q-24 -1 -43.5 -10.5t-34 -25t-24.5 -35.5t-16 -41z" />
<glyph unicode="&#xd2;" d="M103.5 497q-1.5 76 8.5 147l26 166q13 77 36.5 156.5t59 154t84 140.5t110 114.5t137 75.5t165.5 25q87 -2 152.5 -32.5t112.5 -80.5t76.5 -116t44 -139.5t16 -150t-8.5 -147.5l-26 -165q-13 -77 -36.5 -156.5t-59 -154t-83.5 -140.5t-109.5 -114t-137 -75t-165.5 -25 q-86 2 -151.5 32.5t-112.5 80.5t-77 116t-45 139t-16.5 149zM280 544q-3 -54 2 -109t19 -107t42 -92.5t70.5 -66t104.5 -27.5q65 -2 118 19.5t94 60t72 89.5t53.5 107.5t37.5 114.5t24 111l27 170q6 46 9.5 100t-1 108.5t-18.5 106t-41.5 91.5t-70 65t-104.5 27 q-65 2 -117.5 -19.5t-94 -60t-73 -89t-54.5 -107t-38 -114.5t-24 -110l-28 -169q-6 -45 -9 -99zM525 1848h204l129 -266h-134z" />
<glyph unicode="&#xd3;" d="M103.5 497q-1.5 76 8.5 147l26 166q13 77 36.5 156.5t59 154t84 140.5t110 114.5t137 75.5t165.5 25q87 -2 152.5 -32.5t112.5 -80.5t76.5 -116t44 -139.5t16 -150t-8.5 -147.5l-26 -165q-13 -77 -36.5 -156.5t-59 -154t-83.5 -140.5t-109.5 -114t-137 -75t-165.5 -25 q-86 2 -151.5 32.5t-112.5 80.5t-77 116t-45 139t-16.5 149zM280 544q-3 -54 2 -109t19 -107t42 -92.5t70.5 -66t104.5 -27.5q65 -2 118 19.5t94 60t72 89.5t53.5 107.5t37.5 114.5t24 111l27 170q6 46 9.5 100t-1 108.5t-18.5 106t-41.5 91.5t-70 65t-104.5 27 q-65 2 -117.5 -19.5t-94 -60t-73 -89t-54.5 -107t-38 -114.5t-24 -110l-28 -169q-6 -45 -9 -99zM694 1579l221 266h231l-302 -266h-150z" />
<glyph unicode="&#xd4;" d="M103.5 497q-1.5 76 8.5 147l26 166q13 77 36.5 156.5t59 154t84 140.5t110 114.5t137 75.5t165.5 25q87 -2 152.5 -32.5t112.5 -80.5t76.5 -116t44 -139.5t16 -150t-8.5 -147.5l-26 -165q-13 -77 -36.5 -156.5t-59 -154t-83.5 -140.5t-109.5 -114t-137 -75t-165.5 -25 q-86 2 -151.5 32.5t-112.5 80.5t-77 116t-45 139t-16.5 149zM280 544q-3 -54 2 -109t19 -107t42 -92.5t70.5 -66t104.5 -27.5q65 -2 118 19.5t94 60t72 89.5t53.5 107.5t37.5 114.5t24 111l27 170q6 46 9.5 100t-1 108.5t-18.5 106t-41.5 91.5t-70 65t-104.5 27 q-65 2 -117.5 -19.5t-94 -60t-73 -89t-54.5 -107t-38 -114.5t-24 -110l-28 -169q-6 -45 -9 -99zM500 1620l2 27l272 238h106l211 -239l-2 -27l-146 1l-118 150l-172 -149z" />
<glyph unicode="&#xd5;" d="M103.5 497q-1.5 76 8.5 147l26 166q13 77 36.5 156.5t59 154t84 140.5t110 114.5t137 75.5t165.5 25q87 -2 152.5 -32.5t112.5 -80.5t76.5 -116t44 -139.5t16 -150t-8.5 -147.5l-26 -165q-13 -77 -36.5 -156.5t-59 -154t-83.5 -140.5t-109.5 -114t-137 -75t-165.5 -25 q-86 2 -151.5 32.5t-112.5 80.5t-77 116t-45 139t-16.5 149zM280 544q-3 -54 2 -109t19 -107t42 -92.5t70.5 -66t104.5 -27.5q65 -2 118 19.5t94 60t72 89.5t53.5 107.5t37.5 114.5t24 111l27 170q6 46 9.5 100t-1 108.5t-18.5 106t-41.5 91.5t-70 65t-104.5 27 q-65 2 -117.5 -19.5t-94 -60t-73 -89t-54.5 -107t-38 -114.5t-24 -110l-28 -169q-6 -45 -9 -99zM462 1649q5 43 22 85t44.5 74.5t66 52t86.5 19.5q37 0 69 -16t63 -34.5t62.5 -34t68.5 -14.5q50 2 79 35.5t41 77.5l97 -29q-5 -44 -21.5 -84.5t-44 -72t-66 -50.5t-86.5 -19 q-38 0 -70 15.5t-62.5 34.5t-62 34.5t-68.5 14.5q-24 -1 -43.5 -10.5t-34 -25t-24.5 -35.5t-16 -41z" />
<glyph unicode="&#xd6;" d="M103.5 497q-1.5 76 8.5 147l26 166q13 77 36.5 156.5t59 154t84 140.5t110 114.5t137 75.5t165.5 25q87 -2 152.5 -32.5t112.5 -80.5t76.5 -116t44 -139.5t16 -150t-8.5 -147.5l-26 -165q-13 -77 -36.5 -156.5t-59 -154t-83.5 -140.5t-109.5 -114t-137 -75t-165.5 -25 q-86 2 -151.5 32.5t-112.5 80.5t-77 116t-45 139t-16.5 149zM280 544q-3 -54 2 -109t19 -107t42 -92.5t70.5 -66t104.5 -27.5q65 -2 118 19.5t94 60t72 89.5t53.5 107.5t37.5 114.5t24 111l27 170q6 46 9.5 100t-1 108.5t-18.5 106t-41.5 91.5t-70 65t-104.5 27 q-65 2 -117.5 -19.5t-94 -60t-73 -89t-54.5 -107t-38 -114.5t-24 -110l-28 -169q-6 -45 -9 -99zM492 1737q0 46 29.5 76.5t76.5 32.5q46 1 77 -28.5t30 -76.5q-1 -46 -31 -76t-76 -32q-47 -1 -77 28t-29 76zM908 1735q1 46 30.5 77t76.5 33q47 1 77 -28.5t30 -77.5 q-1 -46 -31 -76t-77 -32q-46 -1 -76 28t-30 76z" />
<glyph unicode="&#xd7;" d="M129 338l380 336l-261 334l129 115l260 -334l377 334l102 -132l-377 -333l263 -338l-128 -114l-264 336l-379 -336z" />
<glyph unicode="&#xd8;" d="M-58 -93l219 293q-24 49 -38.5 104t-21.5 112.5t-6 115.5t9 112l26 166q12 77 36 156.5t59.5 154t84 140.5t110 114.5t137 75.5t165.5 25q99 -2 169.5 -40t118.5 -100l134 180h151l-221 -295q19 -47 30 -98.5t16 -104.5t3.5 -105.5t-8.5 -102.5l-26 -165 q-13 -77 -36.5 -156.5t-59 -154t-83.5 -140.5t-109.5 -114t-137 -75t-165.5 -25q-88 2 -152.5 32.5t-112.5 81.5l-140 -187h-151zM270.5 509q-1.5 -74 13.5 -145l617 827q-26 52 -72.5 85.5t-118.5 35.5q-65 2 -117.5 -19.5t-94 -60t-73 -89t-54.5 -107t-38 -114.5t-24 -110 l-28 -169q-9 -60 -10.5 -134zM336 233q28 -40 70 -64.5t104 -26.5q65 -2 118 19.5t94 60t72 89.5t53.5 107.5t37.5 114.5t24 111l27 170q7 50 10 109.5t-4 119.5z" />
<glyph unicode="&#xd9;" d="M115 469l170 987h172l-165 -987q-7 -59 2 -117t36 -105t72.5 -77.5t112.5 -32.5q71 -2 129.5 25.5t102 74.5t71.5 108t40 125l172 986h175l-167 -985q-15 -100 -61 -190t-116 -157.5t-161 -106.5t-197 -37q-100 2 -177 43.5t-127.5 109t-72.5 155t-11 181.5zM545 1815 h204l129 -266h-134z" />
<glyph unicode="&#xda;" d="M115 469l170 987h172l-165 -987q-7 -59 2 -117t36 -105t72.5 -77.5t112.5 -32.5q71 -2 129.5 25.5t102 74.5t71.5 108t40 125l172 986h175l-167 -985q-15 -100 -61 -190t-116 -157.5t-161 -106.5t-197 -37q-100 2 -177 43.5t-127.5 109t-72.5 155t-11 181.5zM714 1546 l221 266h231l-302 -266h-150z" />
<glyph unicode="&#xdb;" d="M115 469l170 987h172l-165 -987q-7 -59 2 -117t36 -105t72.5 -77.5t112.5 -32.5q71 -2 129.5 25.5t102 74.5t71.5 108t40 125l172 986h175l-167 -985q-15 -100 -61 -190t-116 -157.5t-161 -106.5t-197 -37q-100 2 -177 43.5t-127.5 109t-72.5 155t-11 181.5zM520 1587 l2 27l272 238h106l211 -239l-2 -27l-146 1l-118 150l-172 -149z" />
<glyph unicode="&#xdc;" d="M115 469l170 987h172l-165 -987q-7 -59 2 -117t36 -105t72.5 -77.5t112.5 -32.5q71 -2 129.5 25.5t102 74.5t71.5 108t40 125l172 986h175l-167 -985q-15 -100 -61 -190t-116 -157.5t-161 -106.5t-197 -37q-100 2 -177 43.5t-127.5 109t-72.5 155t-11 181.5zM512 1704 q0 46 29.5 76.5t76.5 32.5q46 1 77 -28.5t30 -76.5q-1 -46 -31 -76t-76 -32q-47 -1 -77 28t-29 76zM928 1702q1 46 30.5 77t76.5 33q47 1 77 -28.5t30 -77.5q-1 -46 -31 -76t-77 -32q-46 -1 -76 28t-30 76z" />
<glyph unicode="&#xdd;" d="M212 1456h196l194 -730l448 730h215l-605 -924l-95 -532h-168l94 554zM667 1557l221 266h231l-302 -266h-150z" />
<glyph unicode="&#xde;" d="M58 0l253 1456h181l-51 -293l256 -1q93 -3 171.5 -31.5t134.5 -81.5t84.5 -129.5t20.5 -174.5q-9 -107 -56 -188t-119.5 -135.5t-165.5 -82t-194 -27.5l-279 1l-55 -313h-181zM320 465l257 -2q65 0 125 18.5t107 54.5t78.5 88t40.5 120q7 59 -6.5 107t-44.5 82.5 t-78 54.5t-105 22l-279 1z" />
<glyph unicode="&#xdf;" d="M59 0l186 1087q13 90 46.5 176t89 152.5t133 106t179.5 36.5q73 -2 131.5 -26t98.5 -67t59.5 -103t13.5 -133q-5 -62 -31 -113t-56.5 -99t-58.5 -97t-37 -107q-8 -45 5 -85t37 -77.5t53.5 -74.5t55 -76t41.5 -82t13 -93q-5 -80 -34.5 -144.5t-79 -110.5t-117 -70 t-146.5 -23q-36 0 -74.5 4t-75.5 12.5t-72.5 22.5t-65.5 34l54 156q48 -33 105 -55t116 -22q43 0 79 13t63.5 37.5t45 59t23.5 76.5q7 48 -7.5 89t-39 79t-54.5 75.5t-55.5 77t-41 84t-10.5 96.5q3 39 17.5 73t34 65.5t41.5 61.5t42 61.5t35 65t20 71.5q4 34 -1.5 68 t-21 61.5t-42.5 45t-66 19.5q-65 3 -111.5 -27t-78.5 -77.5t-50 -105.5t-26 -110l-185 -1088h-180z" />
<glyph unicode="&#xe0;" d="M101 292q4 70 28.5 124t63.5 94.5t90 68.5t108.5 45.5t119 25t121.5 7.5l206 -1l13 86q6 51 -7.5 90t-41.5 66t-68.5 41t-89.5 15q-43 1 -84.5 -9t-76 -31t-59.5 -53.5t-35 -77.5l-181 -1q9 82 53 142.5t108.5 100.5t141.5 59.5t151 18.5q82 -2 153 -26t121.5 -70.5 t76.5 -113.5t17 -154l-84 -503q-9 -55 -9.5 -110t12.5 -109l-2 -17h-183q-8 30 -8 59t3 59q-71 -63 -154.5 -101t-180.5 -36q-68 1 -128.5 23t-105 62t-69 97t-20.5 129zM285 319q-5 -43 6 -76t35 -55.5t58 -34.5t75 -13q96 -2 179 43.5t139 121.5l39 220l-155 1 q-55 0 -117.5 -7t-117.5 -29t-94 -63t-47 -108zM458 1505h204l129 -266h-134z" />
<glyph unicode="&#xe1;" d="M101 292q4 70 28.5 124t63.5 94.5t90 68.5t108.5 45.5t119 25t121.5 7.5l206 -1l13 86q6 51 -7.5 90t-41.5 66t-68.5 41t-89.5 15q-43 1 -84.5 -9t-76 -31t-59.5 -53.5t-35 -77.5l-181 -1q9 82 53 142.5t108.5 100.5t141.5 59.5t151 18.5q82 -2 153 -26t121.5 -70.5 t76.5 -113.5t17 -154l-84 -503q-9 -55 -9.5 -110t12.5 -109l-2 -17h-183q-8 30 -8 59t3 59q-71 -63 -154.5 -101t-180.5 -36q-68 1 -128.5 23t-105 62t-69 97t-20.5 129zM285 319q-5 -43 6 -76t35 -55.5t58 -34.5t75 -13q96 -2 179 43.5t139 121.5l39 220l-155 1 q-55 0 -117.5 -7t-117.5 -29t-94 -63t-47 -108zM627 1236l221 266h231l-302 -266h-150z" />
<glyph unicode="&#xe2;" d="M101 292q4 70 28.5 124t63.5 94.5t90 68.5t108.5 45.5t119 25t121.5 7.5l206 -1l13 86q6 51 -7.5 90t-41.5 66t-68.5 41t-89.5 15q-43 1 -84.5 -9t-76 -31t-59.5 -53.5t-35 -77.5l-181 -1q9 82 53 142.5t108.5 100.5t141.5 59.5t151 18.5q82 -2 153 -26t121.5 -70.5 t76.5 -113.5t17 -154l-84 -503q-9 -55 -9.5 -110t12.5 -109l-2 -17h-183q-8 30 -8 59t3 59q-71 -63 -154.5 -101t-180.5 -36q-68 1 -128.5 23t-105 62t-69 97t-20.5 129zM285 319q-5 -43 6 -76t35 -55.5t58 -34.5t75 -13q96 -2 179 43.5t139 121.5l39 220l-155 1 q-55 0 -117.5 -7t-117.5 -29t-94 -63t-47 -108zM433 1277l2 27l272 238h106l211 -239l-2 -27l-146 1l-118 150l-172 -149z" />
<glyph unicode="&#xe3;" d="M101 292q4 70 28.5 124t63.5 94.5t90 68.5t108.5 45.5t119 25t121.5 7.5l206 -1l13 86q6 51 -7.5 90t-41.5 66t-68.5 41t-89.5 15q-43 1 -84.5 -9t-76 -31t-59.5 -53.5t-35 -77.5l-181 -1q9 82 53 142.5t108.5 100.5t141.5 59.5t151 18.5q82 -2 153 -26t121.5 -70.5 t76.5 -113.5t17 -154l-84 -503q-9 -55 -9.5 -110t12.5 -109l-2 -17h-183q-8 30 -8 59t3 59q-71 -63 -154.5 -101t-180.5 -36q-68 1 -128.5 23t-105 62t-69 97t-20.5 129zM285 319q-5 -43 6 -76t35 -55.5t58 -34.5t75 -13q96 -2 179 43.5t139 121.5l39 220l-155 1 q-55 0 -117.5 -7t-117.5 -29t-94 -63t-47 -108zM395 1306q5 43 22 85t44.5 74.5t66 52t86.5 19.5q37 0 69 -16t63 -34.5t62.5 -34t68.5 -14.5q50 2 79 35.5t41 77.5l97 -29q-5 -44 -21.5 -84.5t-44 -72t-66 -50.5t-86.5 -19q-38 0 -70 15.5t-62.5 34.5t-62 34.5t-68.5 14.5 q-24 -1 -43.5 -10.5t-34 -25t-24.5 -35.5t-16 -41z" />
<glyph unicode="&#xe4;" d="M101 292q4 70 28.5 124t63.5 94.5t90 68.5t108.5 45.5t119 25t121.5 7.5l206 -1l13 86q6 51 -7.5 90t-41.5 66t-68.5 41t-89.5 15q-43 1 -84.5 -9t-76 -31t-59.5 -53.5t-35 -77.5l-181 -1q9 82 53 142.5t108.5 100.5t141.5 59.5t151 18.5q82 -2 153 -26t121.5 -70.5 t76.5 -113.5t17 -154l-84 -503q-9 -55 -9.5 -110t12.5 -109l-2 -17h-183q-8 30 -8 59t3 59q-71 -63 -154.5 -101t-180.5 -36q-68 1 -128.5 23t-105 62t-69 97t-20.5 129zM285 319q-5 -43 6 -76t35 -55.5t58 -34.5t75 -13q96 -2 179 43.5t139 121.5l39 220l-155 1 q-55 0 -117.5 -7t-117.5 -29t-94 -63t-47 -108zM425 1394q0 46 29.5 76.5t76.5 32.5q46 1 77 -28.5t30 -76.5q-1 -46 -31 -76t-76 -32q-47 -1 -77 28t-29 76zM841 1392q1 46 30.5 77t76.5 33q47 1 77 -28.5t30 -77.5q-1 -46 -31 -76t-77 -32q-46 -1 -76 28t-30 76z" />
<glyph unicode="&#xe5;" d="M101 292q4 70 28.5 124t63.5 94.5t90 68.5t108.5 45.5t119 25t121.5 7.5l206 -1l13 86q6 51 -7.5 90t-41.5 66t-68.5 41t-89.5 15q-43 1 -84.5 -9t-76 -31t-59.5 -53.5t-35 -77.5l-181 -1q9 82 53 142.5t108.5 100.5t141.5 59.5t151 18.5q82 -2 153 -26t121.5 -70.5 t76.5 -113.5t17 -154l-84 -503q-9 -55 -9.5 -110t12.5 -109l-2 -17h-183q-8 30 -8 59t3 59q-71 -63 -154.5 -101t-180.5 -36q-68 1 -128.5 23t-105 62t-69 97t-20.5 129zM285 319q-5 -43 6 -76t35 -55.5t58 -34.5t75 -13q96 -2 179 43.5t139 121.5l39 220l-155 1 q-55 0 -117.5 -7t-117.5 -29t-94 -63t-47 -108zM547 1402q1 43 19 81t47 66.5t67.5 44.5t81.5 16q40 0 74 -15.5t58 -41.5t37 -61t12 -74q-2 -43 -19 -80t-45.5 -64.5t-66.5 -43t-81 -15.5q-40 0 -74 14.5t-59 39.5t-38.5 59t-12.5 74zM645 1405q-3 -40 21 -70t66 -30 q22 0 41.5 9t35 24.5t25 35.5t12.5 41q2 20 -3 38.5t-16 33t-27.5 23.5t-37.5 9q-23 0 -43.5 -9.5t-36 -25.5t-25.5 -36.5t-12 -42.5z" />
<glyph unicode="&#xe6;" d="M-12 277q6 93 43.5 160.5t97.5 112t137.5 65.5t163.5 21l66 -1l26 149q3 28 1.5 57.5t-11 53.5t-30 39.5t-55.5 16.5q-36 1 -62.5 -12t-45 -35.5t-30 -51.5t-17.5 -60l-175 8q7 70 34.5 126.5t72 96t104 60.5t130.5 20q33 0 66 -6t62 -18.5t54.5 -33t43.5 -49.5 q51 49 110.5 78t131.5 28q79 -2 134 -33.5t88 -83t44.5 -117.5t4.5 -137l-37 -234h-489l-12 -87q-6 -53 -2 -103t23.5 -88.5t58 -62.5t100.5 -24q57 -1 104.5 19t93.5 49l35 -138q-28 -23 -61.5 -39t-69.5 -25.5t-73 -13t-72 -3.5q-41 0 -80.5 8.5t-74 26t-63 44.5t-47.5 65 q-27 -32 -57 -59t-63.5 -46.5t-72 -30t-81.5 -9.5q-65 1 -113 24.5t-79.5 63.5t-45.5 94t-11 115zM166 273q-3 -29 2.5 -55t20 -46t37 -31.5t53.5 -11.5q22 0 42 6t39 16.5t36 24t33 26.5l52 295h-54q-49 -1 -93.5 -17.5t-80 -45.5t-58.5 -70t-29 -91zM669 640h324l18 129 q3 31 -2 63t-19 58.5t-38.5 43t-61.5 18.5q-50 1 -86 -21t-60.5 -57.5t-40 -79t-22.5 -84.5z" />
<glyph unicode="&#xe7;" d="M127 517l5 43q9 73 32 142t58.5 130t83 111.5t106.5 86.5t128 55t147 17q84 -2 155 -32t121.5 -81.5t77.5 -123t23 -156.5l-170 1q2 50 -12 93t-42.5 75.5t-69.5 51.5t-93 21q-83 3 -146.5 -30.5t-108.5 -89.5t-72.5 -127t-37.5 -144l-5 -42q-5 -43 -5 -88t7.5 -87.5 t23.5 -81t43 -67t65.5 -46.5t91.5 -19q49 -1 97 13.5t87.5 42t67.5 67t39 88.5l171 1q-9 -83 -54 -150.5t-111 -115t-146 -73t-159 -23.5q-114 3 -194 49t-129 120.5t-67 170.5t-8 198zM351 -437l4 108q27 1 56.5 6t55.5 16.5t45 32t24 52.5q5 30 -8 46.5t-34.5 25 t-47.5 11.5t-47 6l45 133h131l-21 -55q62 -15 94 -57t30 -106q-2 -65 -33.5 -106.5t-79.5 -66t-105 -34.5t-109 -12z" />
<glyph unicode="&#xe8;" d="M117 500l5 43q8 71 31 140.5t59.5 132.5t85 116t108 91.5t129 59.5t146.5 19q112 -3 189 -48.5t122 -119.5t60 -168.5t2 -194.5l-13 -83h-745q-8 -66 4.5 -129t44.5 -113t85 -81t126 -33q94 -3 173.5 37t143.5 106l104 -88q-37 -52 -86.5 -91.5t-106.5 -65.5t-119 -38.5 t-125 -11.5q-110 2 -193.5 45t-137.5 114t-77.5 164t-14.5 197zM318 640l564 -2l4 18q9 55 -1 107t-38 93t-72 66.5t-103 27.5q-70 3 -126 -23.5t-99.5 -70.5t-75.5 -101t-53 -115zM454 1506h204l129 -266h-134z" />
<glyph unicode="&#xe9;" d="M117 500l5 43q8 71 31 140.5t59.5 132.5t85 116t108 91.5t129 59.5t146.5 19q112 -3 189 -48.5t122 -119.5t60 -168.5t2 -194.5l-13 -83h-745q-8 -66 4.5 -129t44.5 -113t85 -81t126 -33q94 -3 173.5 37t143.5 106l104 -88q-37 -52 -86.5 -91.5t-106.5 -65.5t-119 -38.5 t-125 -11.5q-110 2 -193.5 45t-137.5 114t-77.5 164t-14.5 197zM318 640l564 -2l4 18q9 55 -1 107t-38 93t-72 66.5t-103 27.5q-70 3 -126 -23.5t-99.5 -70.5t-75.5 -101t-53 -115zM623 1237l221 266h231l-302 -266h-150z" />
<glyph unicode="&#xea;" d="M117 500l5 43q8 71 31 140.5t59.5 132.5t85 116t108 91.5t129 59.5t146.5 19q112 -3 189 -48.5t122 -119.5t60 -168.5t2 -194.5l-13 -83h-745q-8 -66 4.5 -129t44.5 -113t85 -81t126 -33q94 -3 173.5 37t143.5 106l104 -88q-37 -52 -86.5 -91.5t-106.5 -65.5t-119 -38.5 t-125 -11.5q-110 2 -193.5 45t-137.5 114t-77.5 164t-14.5 197zM318 640l564 -2l4 18q9 55 -1 107t-38 93t-72 66.5t-103 27.5q-70 3 -126 -23.5t-99.5 -70.5t-75.5 -101t-53 -115zM429 1278l2 27l272 238h106l211 -239l-2 -27l-146 1l-118 150l-172 -149z" />
<glyph unicode="&#xeb;" d="M117 500l5 43q8 71 31 140.5t59.5 132.5t85 116t108 91.5t129 59.5t146.5 19q112 -3 189 -48.5t122 -119.5t60 -168.5t2 -194.5l-13 -83h-745q-8 -66 4.5 -129t44.5 -113t85 -81t126 -33q94 -3 173.5 37t143.5 106l104 -88q-37 -52 -86.5 -91.5t-106.5 -65.5t-119 -38.5 t-125 -11.5q-110 2 -193.5 45t-137.5 114t-77.5 164t-14.5 197zM318 640l564 -2l4 18q9 55 -1 107t-38 93t-72 66.5t-103 27.5q-70 3 -126 -23.5t-99.5 -70.5t-75.5 -101t-53 -115zM421 1395q0 46 29.5 76.5t76.5 32.5q46 1 77 -28.5t30 -76.5q-1 -46 -31 -76t-76 -32 q-47 -1 -77 28t-29 76zM837 1393q1 46 30.5 77t76.5 33q47 1 77 -28.5t30 -77.5q-1 -46 -31 -76t-77 -32q-46 -1 -76 28t-30 76z" />
<glyph unicode="&#xec;" d="M92 0l29 160h356l132 761h-357l28 161h538l-160 -922h343l-29 -160h-880zM495 1484h204l129 -266h-134z" />
<glyph unicode="&#xed;" d="M92 0l29 160h356l132 761h-357l28 161h538l-160 -922h343l-29 -160h-880zM664 1215l221 266h231l-302 -266h-150z" />
<glyph unicode="&#xee;" d="M92 0l29 160h356l132 761h-357l28 161h538l-160 -922h343l-29 -160h-880zM470 1256l2 27l272 238h106l211 -239l-2 -27l-146 1l-118 150l-172 -149z" />
<glyph unicode="&#xef;" d="M92 0l29 160h356l132 761h-357l28 161h538l-160 -922h343l-29 -160h-880zM462 1373q0 46 29.5 76.5t76.5 32.5q46 1 77 -28.5t30 -76.5q-1 -46 -31 -76t-76 -32q-47 -1 -77 28t-29 76zM878 1371q1 46 30.5 77t76.5 33q47 1 77 -28.5t30 -77.5q-1 -46 -31 -76t-77 -32 q-46 -1 -76 28t-30 76z" />
<glyph unicode="&#xf0;" d="M49 459q10 108 54.5 203.5t116.5 166.5t167.5 111t207.5 37q81 -2 151 -34.5t124 -89.5q2 91 -21 177t-73 163l-287 -152l-58 107l253 133q-35 28 -73 47t-80 35l71 157q72 -23 135 -58.5t117 -86.5l250 133l58 -109l-224 -115q80 -154 101.5 -316t-0.5 -333l-8 -63 q-15 -114 -59.5 -221.5t-117 -191t-172.5 -133t-226 -46.5q-99 3 -178.5 41.5t-133.5 103.5t-79 151t-16 183zM231 459q-8 -60 3.5 -118t41.5 -104t78.5 -75.5t114.5 -31.5q89 -3 155.5 37.5t113 105.5t74 144t39.5 154l10 64l7 52q-19 39 -50 65.5t-69 43t-80 24t-82 7.5 q-76 1 -138 -30.5t-108 -83.5t-74 -118.5t-36 -135.5z" />
<glyph unicode="&#xf1;" d="M64 0l188 1082l161 1l-23 -161q33 40 72 74t83 58t93 36.5t103 11.5q91 -2 153 -36t98.5 -90.5t49 -131.5t3.5 -157l-115 -687h-181l115 684q6 55 0.5 102t-27 82t-60.5 55.5t-99 21.5q-47 1 -89.5 -11.5t-79.5 -35t-69.5 -54t-59.5 -67.5l-135 -777h-181zM376 1306 q5 43 22 85t44.5 74.5t66 52t86.5 19.5q37 0 69 -16t63 -34.5t62.5 -34t68.5 -14.5q50 2 79 35.5t41 77.5l97 -29q-5 -44 -21.5 -84.5t-44 -72t-66 -50.5t-86.5 -19q-38 0 -70 15.5t-62.5 34.5t-62 34.5t-68.5 14.5q-24 -1 -43.5 -10.5t-34 -25t-24.5 -35.5t-16 -41z" />
<glyph unicode="&#xf2;" d="M107 522l3 22q9 73 31.5 143.5t57.5 133t82.5 115t106 90t128 58t149.5 18.5q114 -3 194.5 -50.5t129.5 -124t67.5 -174t7.5 -199.5l-2 -23q-14 -109 -58.5 -210t-115.5 -177.5t-167.5 -121.5t-214.5 -42q-113 3 -193.5 49.5t-129.5 122.5t-68 172t-8 198zM283.5 435 q0.5 -45 8 -88t23.5 -82t43 -68.5t65.5 -47.5t90.5 -20q83 -3 147 33t109.5 94t72.5 130.5t38 144.5l2 22q7 63 2.5 132t-29.5 127.5t-73 97t-126 41.5q-84 3 -148 -33.5t-109 -95.5t-72 -132.5t-37 -145.5l-3 -22q-5 -42 -4.5 -87zM448 1505h204l129 -266h-134z" />
<glyph unicode="&#xf3;" d="M107 522l3 22q9 73 31.5 143.5t57.5 133t82.5 115t106 90t128 58t149.5 18.5q114 -3 194.5 -50.5t129.5 -124t67.5 -174t7.5 -199.5l-2 -23q-14 -109 -58.5 -210t-115.5 -177.5t-167.5 -121.5t-214.5 -42q-113 3 -193.5 49.5t-129.5 122.5t-68 172t-8 198zM283.5 435 q0.5 -45 8 -88t23.5 -82t43 -68.5t65.5 -47.5t90.5 -20q83 -3 147 33t109.5 94t72.5 130.5t38 144.5l2 22q7 63 2.5 132t-29.5 127.5t-73 97t-126 41.5q-84 3 -148 -33.5t-109 -95.5t-72 -132.5t-37 -145.5l-3 -22q-5 -42 -4.5 -87zM617 1236l221 266h231l-302 -266h-150z " />
<glyph unicode="&#xf4;" d="M107 522l3 22q9 73 31.5 143.5t57.5 133t82.5 115t106 90t128 58t149.5 18.5q114 -3 194.5 -50.5t129.5 -124t67.5 -174t7.5 -199.5l-2 -23q-14 -109 -58.5 -210t-115.5 -177.5t-167.5 -121.5t-214.5 -42q-113 3 -193.5 49.5t-129.5 122.5t-68 172t-8 198zM283.5 435 q0.5 -45 8 -88t23.5 -82t43 -68.5t65.5 -47.5t90.5 -20q83 -3 147 33t109.5 94t72.5 130.5t38 144.5l2 22q7 63 2.5 132t-29.5 127.5t-73 97t-126 41.5q-84 3 -148 -33.5t-109 -95.5t-72 -132.5t-37 -145.5l-3 -22q-5 -42 -4.5 -87zM423 1277l2 27l272 238h106l211 -239 l-2 -27l-146 1l-118 150l-172 -149z" />
<glyph unicode="&#xf5;" d="M107 522l3 22q9 73 31.5 143.5t57.5 133t82.5 115t106 90t128 58t149.5 18.5q114 -3 194.5 -50.5t129.5 -124t67.5 -174t7.5 -199.5l-2 -23q-14 -109 -58.5 -210t-115.5 -177.5t-167.5 -121.5t-214.5 -42q-113 3 -193.5 49.5t-129.5 122.5t-68 172t-8 198zM283.5 435 q0.5 -45 8 -88t23.5 -82t43 -68.5t65.5 -47.5t90.5 -20q83 -3 147 33t109.5 94t72.5 130.5t38 144.5l2 22q7 63 2.5 132t-29.5 127.5t-73 97t-126 41.5q-84 3 -148 -33.5t-109 -95.5t-72 -132.5t-37 -145.5l-3 -22q-5 -42 -4.5 -87zM385 1306q5 43 22 85t44.5 74.5t66 52 t86.5 19.5q37 0 69 -16t63 -34.5t62.5 -34t68.5 -14.5q50 2 79 35.5t41 77.5l97 -29q-5 -44 -21.5 -84.5t-44 -72t-66 -50.5t-86.5 -19q-38 0 -70 15.5t-62.5 34.5t-62 34.5t-68.5 14.5q-24 -1 -43.5 -10.5t-34 -25t-24.5 -35.5t-16 -41z" />
<glyph unicode="&#xf6;" d="M107 522l3 22q9 73 31.5 143.5t57.5 133t82.5 115t106 90t128 58t149.5 18.5q114 -3 194.5 -50.5t129.5 -124t67.5 -174t7.5 -199.5l-2 -23q-14 -109 -58.5 -210t-115.5 -177.5t-167.5 -121.5t-214.5 -42q-113 3 -193.5 49.5t-129.5 122.5t-68 172t-8 198zM283.5 435 q0.5 -45 8 -88t23.5 -82t43 -68.5t65.5 -47.5t90.5 -20q83 -3 147 33t109.5 94t72.5 130.5t38 144.5l2 22q7 63 2.5 132t-29.5 127.5t-73 97t-126 41.5q-84 3 -148 -33.5t-109 -95.5t-72 -132.5t-37 -145.5l-3 -22q-5 -42 -4.5 -87zM415 1394q0 46 29.5 76.5t76.5 32.5 q46 1 77 -28.5t30 -76.5q-1 -46 -31 -76t-76 -32q-47 -1 -77 28t-29 76zM831 1392q1 46 30.5 77t76.5 33q47 1 77 -28.5t30 -77.5q-1 -46 -31 -76t-77 -32q-46 -1 -76 28t-30 76z" />
<glyph unicode="&#xf7;" d="M111 600l32 184h970l-33 -184h-969zM435 279q0 47 29.5 78t76.5 33q23 1 43 -6.5t34 -22t22 -34t8 -42.5q-1 -47 -31 -77t-76 -32q-23 -1 -42.5 6.5t-34 21.5t-22 33t-7.5 42zM578 1094q1 47 30 78t76 33q23 1 43 -6.5t34 -22t22 -34t8 -42.5q-1 -47 -31 -77t-76 -32 q-47 -2 -77 27t-29 76z" />
<glyph unicode="&#xf8;" d="M86 -135l147 225q-39 39 -65.5 88t-42.5 104.5t-20 116.5t2 123l3 22q9 73 31.5 143.5t57.5 133t82.5 115t106 90t128 58t149.5 18.5q57 -2 105.5 -15t89.5 -36l103 158h131l-148 -226q37 -39 62.5 -88.5t40 -105t18 -115t-2.5 -120.5l-2 -23q-14 -109 -58.5 -210 t-115.5 -177.5t-167.5 -121.5t-214.5 -42q-54 2 -100 13.5t-85 31.5l-104 -160h-131zM282.5 448.5q-0.5 -37.5 4 -74.5t15 -72t27.5 -65l443 680q-48 31 -115 34q-84 3 -148 -33.5t-109 -95.5t-72 -132.5t-37 -145.5l-3 -22q-5 -36 -5.5 -73.5zM407 157q45 -27 107 -28 q83 -3 147 33t109.5 94t72.5 130.5t38 144.5l2 22q4 34 4.5 70t-3.5 72t-13 70.5t-24 64.5z" />
<glyph unicode="&#xf9;" d="M149.5 274.5q-8.5 81.5 0.5 164.5l108 643h181l-107 -646q-6 -50 -7 -102.5t13.5 -95.5t48.5 -71t97 -30q100 -3 177 41.5t130 126.5l135 777h182l-188 -1082h-163l23 149q-64 -79 -147 -125t-188 -44q-97 2 -158.5 42.5t-95 105.5t-42 146.5zM443 1485h204l129 -266 h-134z" />
<glyph unicode="&#xfa;" d="M149.5 274.5q-8.5 81.5 0.5 164.5l108 643h181l-107 -646q-6 -50 -7 -102.5t13.5 -95.5t48.5 -71t97 -30q100 -3 177 41.5t130 126.5l135 777h182l-188 -1082h-163l23 149q-64 -79 -147 -125t-188 -44q-97 2 -158.5 42.5t-95 105.5t-42 146.5zM612 1216l221 266h231 l-302 -266h-150z" />
<glyph unicode="&#xfb;" d="M149.5 274.5q-8.5 81.5 0.5 164.5l108 643h181l-107 -646q-6 -50 -7 -102.5t13.5 -95.5t48.5 -71t97 -30q100 -3 177 41.5t130 126.5l135 777h182l-188 -1082h-163l23 149q-64 -79 -147 -125t-188 -44q-97 2 -158.5 42.5t-95 105.5t-42 146.5zM418 1257l2 27l272 238h106 l211 -239l-2 -27l-146 1l-118 150l-172 -149z" />
<glyph unicode="&#xfc;" d="M149.5 274.5q-8.5 81.5 0.5 164.5l108 643h181l-107 -646q-6 -50 -7 -102.5t13.5 -95.5t48.5 -71t97 -30q100 -3 177 41.5t130 126.5l135 777h182l-188 -1082h-163l23 149q-64 -79 -147 -125t-188 -44q-97 2 -158.5 42.5t-95 105.5t-42 146.5zM410 1374q0 46 29.5 76.5 t76.5 32.5q46 1 77 -28.5t30 -76.5q-1 -46 -31 -76t-76 -32q-47 -1 -77 28t-29 76zM826 1372q1 46 30.5 77t76.5 33q47 1 77 -28.5t30 -77.5q-1 -46 -31 -76t-77 -32q-46 -1 -76 28t-30 76z" />
<glyph unicode="&#xfd;" d="M-28 -424l41 153q22 -2 44 -5t43 -3q39 1 72 19t60 45t49 59.5t41 61.5l103 156l-271 1020h193l169 -707l21 -120l464 827h211l-748 -1250q-30 -52 -68 -101t-84.5 -87.5t-102 -61t-120.5 -22.5q-29 0 -58.5 5.5t-58.5 10.5zM632 1216l221 266h231l-302 -266h-150z" />
<glyph unicode="&#xfe;" d="M-9 -416l343 1974h180l-110 -589q63 66 141 100.5t172 32.5q73 -2 128 -26.5t93.5 -65t63 -94t36.5 -113.5t13 -123.5t-5 -123.5l-3 -21q-8 -66 -26 -133.5t-47 -129.5t-68.5 -116t-90.5 -94t-115 -62.5t-140 -20.5q-85 2 -159 32.5t-128 96.5l-97 -524h-181zM292 277 q31 -70 86 -107.5t133 -39.5q84 -2 145.5 34.5t104 95.5t67 132t34.5 144l2 21q5 40 5.5 84t-5.5 86.5t-20.5 81.5t-39.5 68.5t-62 47.5t-88 20q-86 3 -153.5 -39.5t-117.5 -108.5z" />
<glyph unicode="&#xff;" d="M-28 -424l41 153q22 -2 44 -5t43 -3q39 1 72 19t60 45t49 59.5t41 61.5l103 156l-271 1020h193l169 -707l21 -120l464 827h211l-748 -1250q-30 -52 -68 -101t-84.5 -87.5t-102 -61t-120.5 -22.5q-29 0 -58.5 5.5t-58.5 10.5zM430 1374q0 46 29.5 76.5t76.5 32.5 q46 1 77 -28.5t30 -76.5q-1 -46 -31 -76t-76 -32q-47 -1 -77 28t-29 76zM846 1372q1 46 30.5 77t76.5 33q47 1 77 -28.5t30 -77.5q-1 -46 -31 -76t-77 -32q-46 -1 -76 28t-30 76z" />
<glyph unicode="&#x152;" d="M61 318.5q-9 91.5 2 183.5l72 451q15 102 50 196.5t93.5 168t143.5 117t199 43.5q65 -1 128 -9.5t127 -12.5h418l-27 -152h-384l-83 -476h334l-27 -152h-333l-92 -525h396l-27 -151h-404q-65 -4 -128.5 -12t-128.5 -6q-108 3 -177 50t-106 121t-46 165.5zM234 345 q1 -40 8.5 -77.5t26 -66.5t49.5 -47.5t79 -20.5q24 -1 48.5 -0.5t48.5 0.5l213 1188q-23 2 -47 4t-48 2q-80 1 -133 -31.5t-86 -85.5t-51 -120t-27 -134l-71 -455q-4 -35 -7.5 -75.5t-2.5 -80.5z" />
<glyph unicode="&#x153;" d="M14.5 338q-0.5 53 5.5 103l28 197q11 82 38.5 165.5t75 151t118 109t167.5 39.5q72 -2 133 -33.5t97 -95.5q49 55 108.5 92t135.5 36q57 -1 100 -20t73 -50.5t48.5 -73.5t27.5 -89t9.5 -96.5t-4.5 -95.5l-28 -181l-440 1l-10 -67q-3 -22 -6 -52t-3 -63t4.5 -65t17 -58 t33.5 -42.5t55 -17.5q54 -2 101.5 17.5t89.5 49.5l44 -127q-49 -49 -112.5 -71t-132.5 -20q-73 1 -136 30.5t-101 94.5q-53 -59 -117.5 -93.5t-145.5 -32.5q-61 1 -106.5 22t-77 55.5t-51 80.5t-29 96.5t-10 103.5zM195 320q0 -34 4.5 -68t17 -61t34 -44.5t56.5 -18.5 q37 -2 65.5 13.5t49.5 41t35.5 59t24 68.5t15 69t9.5 61l27 200q3 22 5.5 53.5t2.5 66t-5 68t-17.5 61t-34.5 45t-56 18.5q-37 1 -65.5 -14t-49.5 -40.5t-35.5 -59t-24 -69t-15.5 -69.5t-9 -61l-26 -200q-2 -22 -5 -53.5t-3 -65.5zM721 642l270 6l12 85q3 28 3 65.5t-9 70.5 t-30.5 56.5t-61.5 25.5q-32 1 -57 -14t-43.5 -41t-32 -58.5t-23 -66t-15.5 -64.5t-11 -53z" />
<glyph unicode="&#x178;" d="M212 1456h196l194 -730l448 730h215l-605 -924l-95 -532h-168l94 554zM465 1715q0 46 29.5 76.5t76.5 32.5q46 1 77 -28.5t30 -76.5q-1 -46 -31 -76t-76 -32q-47 -1 -77 28t-29 76zM881 1713q1 46 30.5 77t76.5 33q47 1 77 -28.5t30 -77.5q-1 -46 -31 -76t-77 -32 q-46 -1 -76 28t-30 76z" />
<glyph unicode="&#x2c6;" d="M302 1252l2 27l272 238h106l211 -239l-2 -27l-146 1l-118 150l-172 -149z" />
<glyph unicode="&#x2dc;" d="M240 1275q5 43 22 85t44.5 74.5t66 52t86.5 19.5q37 0 69 -16t63 -34.5t62.5 -34t68.5 -14.5q50 2 79 35.5t41 77.5l97 -29q-5 -44 -21.5 -84.5t-44 -72t-66 -50.5t-86.5 -19q-38 0 -70 15.5t-62.5 34.5t-62 34.5t-68.5 14.5q-24 -1 -43.5 -10.5t-34 -25t-24.5 -35.5 t-16 -41z" />
<glyph unicode="&#x2000;" horiz-adv-x="966" />
<glyph unicode="&#x2001;" horiz-adv-x="1932" />
<glyph unicode="&#x2002;" horiz-adv-x="966" />
<glyph unicode="&#x2003;" horiz-adv-x="1932" />
<glyph unicode="&#x2004;" horiz-adv-x="644" />
<glyph unicode="&#x2005;" horiz-adv-x="483" />
<glyph unicode="&#x2006;" horiz-adv-x="322" />
<glyph unicode="&#x2007;" horiz-adv-x="322" />
<glyph unicode="&#x2008;" horiz-adv-x="241" />
<glyph unicode="&#x2009;" horiz-adv-x="386" />
<glyph unicode="&#x200a;" horiz-adv-x="107" />
<glyph unicode="&#x2010;" horiz-adv-x="1203" d="M204 561l27 152h743l-27 -152h-743z" />
<glyph unicode="&#x2011;" horiz-adv-x="1203" d="M204 561l27 152h743l-27 -152h-743z" />
<glyph unicode="&#x2012;" horiz-adv-x="1203" d="M204 561l27 152h743l-27 -152h-743z" />
<glyph unicode="&#x2013;" d="M82 651l35 151h1054l-35 -151h-1054z" />
<glyph unicode="&#x2014;" d="M87 651l35 151h1054l-35 -151h-1054z" />
<glyph unicode="&#x2018;" d="M553 1039l23 145q19 114 78 211.5t149 169.5l95 -74q-52 -69 -89.5 -143t-52.5 -160l-27 -149h-176z" />
<glyph unicode="&#x2019;" d="M536 1105q52 69 89 143t53 160l26 150h177l-24 -146q-18 -114 -77.5 -212t-148.5 -169z" />
<glyph unicode="&#x201a;" d="M288 -228q53 69 90 142.5t52 159.5l27 151h180l-23 -148q-19 -113 -79 -210.5t-148 -169.5z" />
<glyph unicode="&#x201c;" d="M395 1039l23 145q19 114 78 211.5t149 169.5l95 -74q-52 -69 -89.5 -143t-52.5 -160l-27 -149h-176zM710 1039l23 145q19 114 78 211.5t149 169.5l95 -74q-52 -69 -89.5 -143t-52.5 -160l-27 -149h-176z" />
<glyph unicode="&#x201d;" d="M381 1105q52 69 89 143t53 160l26 150h177l-24 -146q-18 -114 -77.5 -212t-148.5 -169zM703 1105q52 69 89 143t53 160l26 150h177l-24 -146q-18 -114 -77.5 -212t-148.5 -169z" />
<glyph unicode="&#x201e;" d="M151 -230q52 69 89.5 142.5t52.5 159.5l27 151h180l-23 -147q-19 -114 -79 -211.5t-148 -169.5zM432 -230q53 69 90 142.5t53 159.5l26 151h181l-24 -147q-18 -114 -78 -211.5t-149 -169.5z" />
<glyph unicode="&#x2022;" d="M425 725l2 59q3 44 19 81.5t43.5 65t65.5 42.5t83 15q43 0 78 -15.5t59 -42t36.5 -62.5t11.5 -79l-3 -58q-3 -44 -19.5 -80.5t-44 -63t-65 -41t-82.5 -13.5q-42 0 -76 14.5t-58 40t-37 60.5t-13 77z" />
<glyph unicode="&#x2026;" d="M174 115q0 31 10.5 58.5t29 47.5t45 31.5t58.5 11.5q31 1 57 -9t44.5 -29t29 -44.5t10.5 -56.5q0 -32 -11 -58t-30 -45.5t-46 -30.5t-58 -11q-30 0 -55.5 9.5t-44 27.5t-29 43t-10.5 55zM549 115q0 31 10.5 58.5t29 47.5t45 31.5t58.5 11.5q31 1 57 -9t44.5 -29t29 -44.5 t10.5 -56.5q0 -32 -11 -58t-30 -45.5t-46 -30.5t-58 -11q-30 0 -55.5 9.5t-44 27.5t-29 43t-10.5 55zM912 115q0 31 10.5 58.5t29 47.5t45 31.5t58.5 11.5q31 1 57 -9t44.5 -29t29 -44.5t10.5 -56.5q0 -32 -11 -58t-30 -45.5t-46 -30.5t-58 -11q-30 0 -55.5 9.5t-44 27.5 t-29 43t-10.5 55z" />
<glyph unicode="&#x202f;" horiz-adv-x="386" />
<glyph unicode="&#x2039;" d="M374 540l2 20l348 389h151l-328 -409l177 -387h-124z" />
<glyph unicode="&#x203a;" d="M300 152l328 408l-178 389h126l224 -387l-1 -20l-347 -390h-152z" />
<glyph unicode="&#x205f;" horiz-adv-x="483" />
<glyph unicode="&#x20ac;" d="M113 543l21 122h173l25 138h-174l22 123h166q27 118 77 219t125 175.5t176 116t230 40.5q61 -1 120 -10t118 -22l-34 -155q-51 17 -103.5 26.5t-106.5 10.5q-92 1 -162 -30.5t-121 -86.5t-84.5 -128.5t-52.5 -155.5h381l-22 -123h-373l-25 -138h375l-22 -122h-371 q-9 -74 -3 -146.5t35 -130.5t83.5 -95t141.5 -39q57 -1 112 8.5t110 23.5l4 -155q-116 -30 -231 -29q-121 2 -209 48t-142.5 123t-74 178.5t-4.5 214.5z" />
<glyph unicode="&#x2122;" d="M233 1375l14 81h377l-14 -81h-143l-80 -456h-91l80 456h-143zM605 919l94 537h108l69 -395l208 395h113l-94 -537h-90l67 380l-197 -379l-52 -1l-67 392l-69 -392h-90z" />
<glyph unicode="&#x25fc;" horiz-adv-x="1080" d="M0 0v1080h1080v-1080h-1080z" />
<glyph d="M-57 0l666 1165h161l254 -1165h-175l-57 279h-501l-156 -279h-192zM375 430h386l-104 505z" />
<glyph d="M97 0l202 1165l390 -1q70 -2 141 -19t126.5 -53.5t88.5 -94.5t27 -142q-3 -52 -23.5 -91.5t-52 -70t-72 -53t-85.5 -39.5q43 -14 76.5 -39.5t56 -59t33.5 -75t9 -86.5q-5 -92 -47 -157.5t-107.5 -106.5t-146.5 -59.5t-162 -17.5h-454zM306 151l249 -1q46 0 93 10.5 t86 33.5t66.5 59.5t34.5 88.5q6 45 -6.5 79.5t-38 57.5t-61.5 35.5t-78 14.5l-279 1zM396 671l232 -2q43 1 86.5 10.5t80.5 30.5t62.5 54.5t32.5 81.5q6 47 -10.5 78.5t-46.5 50t-69 27t-78 9.5l-230 1z" />
<glyph d="M97 531l13 100q16 110 62.5 210.5t119.5 177t170.5 121t216.5 41.5q90 -2 161.5 -32t123 -82.5t81 -125t34.5 -159.5h-178q-5 54 -20 98.5t-43 77t-70 51t-99 20.5q-84 3 -149.5 -31t-112 -90t-75 -128.5t-40.5 -146.5l-15 -103q-6 -43 -6 -88.5t7 -88.5t23 -81.5 t42.5 -68t65 -48t91.5 -20.5q63 -3 114 13t91 47.5t69 77.5t49 103l176 2q-19 -93 -65 -167t-112.5 -125.5t-150.5 -78t-179 -23.5q-112 3 -192 51t-129 124.5t-67.5 173.5t-6.5 198z" />
<glyph d="M73 0l202 1165l341 -1q115 -3 205.5 -47t150 -118t86.5 -172t16 -210l-7 -65q-16 -123 -72 -225t-141.5 -174.5t-195 -112.5t-232.5 -40h-353zM281 151l149 -1q91 0 169 29.5t137.5 82.5t98.5 127t52 164l8 64q9 77 -2.5 146.5t-45.5 123.5t-92 87t-143 37l-182 1z" />
<glyph d="M89 0l203 1165h829l-28 -153h-643l-58 -334h559l-27 -152h-558l-66 -375h651l-27 -151h-835z" />
<glyph d="M119 0l203 1165h830l-28 -153h-641l-63 -360h556l-27 -153h-555l-87 -499h-188z" />
<glyph d="M112 540l11 84q16 112 61.5 214t118 179t170.5 122t220 42q85 -2 155.5 -28.5t122.5 -74.5t84 -115.5t40 -152.5l-176 1q-14 100 -72 158t-161 61q-87 3 -152.5 -31.5t-112 -92t-75 -131t-40.5 -149.5l-12 -87q-9 -69 -1.5 -139t35.5 -127.5t80.5 -95t133.5 -40.5 q72 -3 138.5 13t126.5 58l45 239h-269l26 144h445l-65 -441q-43 -48 -96 -80.5t-112 -52t-122 -27t-126 -5.5q-115 3 -199.5 50.5t-138 124t-74.5 175t-9 205.5z" />
<glyph d="M46 0l202 1165h174l-90 -515h490l90 515h174l-203 -1165h-174l87 498h-490l-86 -498h-174z" />
<glyph d="M106 0l28 160h305l147 843h-306l28 161h800l-29 -161h-313l-146 -843h314l-29 -160h-799z" />
<glyph d="M104 368l185 -1q-3 -51 7.5 -93t35.5 -73t63.5 -48.5t92.5 -18.5q53 -1 97.5 18t78 52t55.5 77.5t30 94.5l132 789h186l-135 -790q-13 -87 -52 -159.5t-99 -124.5t-137.5 -80.5t-166.5 -26.5q-89 1 -157.5 29t-115.5 78t-72.5 120t-27.5 157z" />
<glyph d="M70 0l202 1165h181l-95 -543l145 135l451 408h237l-564 -528l380 -637h-205l-312 518l-175 -149l-64 -369h-181z" />
<glyph d="M98 0l203 1165h191l-176 -1014h680l-27 -151h-871z" />
<glyph d="M46 0l202 1165h238l112 -563l311 563h240l-203 -1165h-172l165 944l-316 -626h-128l-111 634l-166 -952h-172z" />
<glyph d="M84 0l202 1165h164l337 -885l148 885h172l-202 -1165h-163l-336 884l-149 -884h-173z" />
<glyph d="M118 411q-5 67 2 133l8 69q15 107 58.5 210.5t113.5 184t165.5 128.5t214.5 45q77 -2 137.5 -26t106 -64.5t76.5 -94.5t48.5 -116.5t21.5 -130t-3 -134.5l-8 -66q-15 -108 -58.5 -210.5t-113.5 -182.5t-165.5 -127.5t-214.5 -44.5q-76 2 -136 25.5t-105.5 64t-76.5 94 t-48.5 115t-22.5 128.5zM291 458.5q0 -45.5 7 -90.5t22 -86t41 -72.5t64.5 -51t91.5 -21.5q85 -3 148.5 35t107.5 99t69.5 136t36.5 147l9 69q5 42 5.5 87.5t-6.5 90t-21.5 84.5t-40.5 71t-64.5 49.5t-91.5 20.5q-83 3 -146.5 -34.5t-108 -97.5t-71.5 -134.5t-38 -145.5 l-9 -68q-5 -42 -5 -87.5z" />
<glyph d="M84 548l8 67q16 112 63.5 215.5t123 182.5t176 125t221.5 43q116 -3 199.5 -51t135.5 -126t72 -177.5t9 -204.5l-8 -68q-20 -152 -94 -277t-204 -209l188 -167l-132 -103l-221 199q-31 -5 -61 -8.5t-61 -2.5q-116 2 -199.5 51t-135 127.5t-72 178.5t-8.5 205z M261.5 407.5q6.5 -71.5 34.5 -131t80 -98t135 -41.5q87 -3 155 32t116.5 93.5t78.5 133.5t42 152l10 71q8 69 1.5 140t-33.5 129.5t-79 96.5t-135 41q-86 3 -154 -32t-117 -93.5t-80 -133t-43 -150.5l-10 -70q-8 -68 -1.5 -139.5z" />
<glyph d="M35 0l202 1165l402 -1q78 -3 149.5 -25t125.5 -64.5t83.5 -106.5t23.5 -151q-4 -65 -28 -115t-62 -88.5t-87.5 -68t-105.5 -51.5l199 -482v-12h-194l-173 449h-276l-78 -449h-181zM320 600l228 -2q49 1 98 14t89.5 39t68.5 65.5t35 93.5q6 49 -8 86t-42.5 62t-68 38 t-84.5 15l-244 1z" />
<glyph d="M94 350l182 -1q-1 -58 19.5 -98.5t55.5 -66t82.5 -37.5t100.5 -13q43 -1 91 7t89.5 27.5t71 52.5t36.5 84q6 50 -15 83.5t-57 55.5t-79 35.5t-80 24.5q-64 19 -132 45.5t-123.5 67t-89.5 98t-30 137.5q4 87 48.5 150t112 103.5t148 58.5t156.5 17q81 -2 153.5 -26 t127 -69t87 -111t34.5 -151l-181 1q1 52 -16.5 90t-48 63t-73 37.5t-91.5 13.5q-42 1 -89 -7.5t-87 -29.5t-68 -55t-34 -83q-3 -33 7.5 -58t31 -43.5t48 -32.5t56.5 -24t58 -18t52 -15q64 -19 129 -47.5t116.5 -71t82 -100.5t26.5 -136q-3 -60 -25 -107.5t-58 -83.5t-82 -62 t-98 -42t-106 -23t-105 -6q-84 1 -161.5 24.5t-137.5 69t-96.5 113.5t-38.5 159z" />
<glyph d="M161 1012l27 153h1006l-27 -153h-412l-175 -1012h-184l176 1012h-411z" />
<glyph d="M142 385l132 780h177l-131 -781q-6 -53 4.5 -98t36.5 -78t67 -52.5t96 -20.5q58 -2 108 15.5t88.5 50.5t64 79.5t35.5 103.5l134 781h179l-130 -778q-13 -93 -56.5 -168t-109.5 -128t-149 -81t-176 -26q-86 2 -157.5 32t-121.5 82.5t-74.5 125.5t-16.5 161z" />
<glyph d="M185 1165h187l151 -865l7 -94l50 112l439 847h205l-637 -1165h-170z" />
<glyph d="M145 1165h163l4 -822l321 822h150l31 -823l290 823h172l-428 -1165h-155l-38 827l-331 -827h-156z" />
<glyph d="M-18 0l503 597l-279 568h201l198 -434l352 434l226 -1l-489 -587l289 -577h-202l-210 442l-361 -442h-228z" />
<glyph d="M178 1165h195l214 -584l418 584h218l-574 -770l-68 -395h-183l75 427z" />
<glyph d="M85 0l21 132l763 880h-617l24 153h846l-19 -129l-764 -885h649l-24 -151h-879z" />
<glyph d="M93 0l203 1165l432 -1q78 -3 148 -27.5t121.5 -70t80 -111t22.5 -149.5q-6 -95 -48.5 -164.5t-108.5 -115t-148.5 -67.5t-168.5 -22l-277 1l-76 -438h-180zM375 590l257 -2q51 0 100 13t89 39.5t66.5 67t32.5 96.5q6 47 -7 84.5t-40 64t-65 41.5t-83 17l-276 1z" />
<glyph d="M99 0l128 753q13 96 46.5 176t88.5 137t133.5 87.5t181.5 28.5q57 -2 108 -16t96.5 -38.5t87.5 -57.5t81 -72l-324 -334q63 -8 117 -30t92.5 -59.5t59 -90t16.5 -120.5q-5 -89 -40 -161t-92.5 -122.5t-134 -77.5t-163.5 -26q-58 1 -112 14.5t-107 36.5l65 153 q36 -25 75.5 -39t84.5 -14q51 0 93.5 17.5t74 49t51.5 74t26 91.5q6 53 -10.5 86.5t-48 52.5t-73 26.5t-86.5 8.5l-93 1l25 145l279 291q-32 31 -72 45.5t-84 15.5q-63 1 -108.5 -22t-77 -62t-50 -89.5t-26.5 -105.5l-128 -753h-180z" />
<glyph d="M-39 515l27 151h619l-27 -151h-619zM73 0l202 1165l341 -1q115 -3 205.5 -47t150 -118t86.5 -172t16 -210l-7 -65q-16 -123 -72 -225t-141.5 -174.5t-195 -112.5t-232.5 -40h-353zM281 151l149 -1q91 0 169 29.5t137.5 82.5t98.5 127t52 164l8 64q9 77 -2.5 146.5 t-45.5 123.5t-92 87t-143 37l-182 1z" />
<glyph d="M-57 0l666 1165h161l254 -1165h-175l-57 279h-501l-156 -279h-192zM375 430h386l-104 505zM454 1535h204l129 -266h-134z" />
<glyph d="M-57 0l666 1165h161l254 -1165h-175l-57 279h-501l-156 -279h-192zM375 430h386l-104 505zM623 1266l221 266h231l-302 -266h-150z" />
<glyph d="M-57 0l666 1165h161l254 -1165h-175l-57 279h-501l-156 -279h-192zM375 430h386l-104 505zM429 1307l2 27l272 238h106l211 -239l-2 -27l-146 1l-118 150l-172 -149z" />
<glyph d="M-57 0l666 1165h161l254 -1165h-175l-57 279h-501l-156 -279h-192zM375 430h386l-104 505zM391 1336q5 43 22 85t44.5 74.5t66 52t86.5 19.5q37 0 69 -16t63 -34.5t62.5 -34t68.5 -14.5q50 2 79 35.5t41 77.5l97 -29q-5 -44 -21.5 -84.5t-44 -72t-66 -50.5t-86.5 -19 q-38 0 -70 15.5t-62.5 34.5t-62 34.5t-68.5 14.5q-24 -1 -43.5 -10.5t-34 -25t-24.5 -35.5t-16 -41z" />
<glyph d="M-57 0l666 1165h161l254 -1165h-175l-57 279h-501l-156 -279h-192zM375 430h386l-104 505zM421 1424q0 46 29.5 76.5t76.5 32.5q46 1 77 -28.5t30 -76.5q-1 -46 -31 -76t-76 -32q-47 -1 -77 28t-29 76zM837 1422q1 46 30.5 77t76.5 33q47 1 77 -28.5t30 -77.5 q-1 -46 -31 -76t-77 -32q-46 -1 -76 28t-30 76z" />
<glyph d="M-57 0l666 1165h161l254 -1165h-175l-57 279h-501l-156 -279h-192zM375 430h386l-104 505zM543 1432q1 43 19 81t47 66.5t67.5 44.5t81.5 16q40 0 74 -15.5t58 -41.5t37 -61t12 -74q-2 -43 -19 -80t-45.5 -64.5t-66.5 -43t-81 -15.5q-40 0 -74 14.5t-59 39.5t-38.5 59 t-12.5 74zM641 1435q-3 -40 21 -70t66 -30q22 0 41.5 9t35 24.5t25 35.5t12.5 41q2 20 -3 38.5t-16 33t-27.5 23.5t-37.5 9q-23 0 -43.5 -9.5t-36 -25.5t-25.5 -36.5t-12 -42.5z" />
<glyph d="M97 531l13 100q16 110 62.5 210.5t119.5 177t170.5 121t216.5 41.5q90 -2 161.5 -32t123 -82.5t81 -125t34.5 -159.5h-178q-5 54 -20 98.5t-43 77t-70 51t-99 20.5q-84 3 -149.5 -31t-112 -90t-75 -128.5t-40.5 -146.5l-15 -103q-6 -43 -6 -88.5t7 -88.5t23 -81.5 t42.5 -68t65 -48t91.5 -20.5q63 -3 114 13t91 47.5t69 77.5t49 103l176 2q-19 -93 -65 -167t-112.5 -125.5t-150.5 -78t-179 -23.5q-112 3 -192 51t-129 124.5t-67.5 173.5t-6.5 198zM319 -440l4 108q27 1 56.5 6t55.5 16.5t45 32t24 52.5q5 30 -8 46.5t-34.5 25t-47.5 11.5 t-47 6l45 133h131l-21 -55q62 -15 94 -57t30 -106q-2 -65 -33.5 -106.5t-79.5 -66t-105 -34.5t-109 -12z" />
<glyph d="M89 0l203 1165h829l-28 -153h-643l-58 -334h559l-27 -152h-558l-66 -375h651l-27 -151h-835zM425 1535h204l129 -266h-134z" />
<glyph d="M89 0l203 1165h829l-28 -153h-643l-58 -334h559l-27 -152h-558l-66 -375h651l-27 -151h-835zM594 1266l221 266h231l-302 -266h-150z" />
<glyph d="M89 0l203 1165h829l-28 -153h-643l-58 -334h559l-27 -152h-558l-66 -375h651l-27 -151h-835zM400 1307l2 27l272 238h106l211 -239l-2 -27l-146 1l-118 150l-172 -149z" />
<glyph d="M89 0l203 1165h829l-28 -153h-643l-58 -334h559l-27 -152h-558l-66 -375h651l-27 -151h-835zM393 1424q0 46 29.5 76.5t76.5 32.5q46 1 77 -28.5t30 -76.5q-1 -46 -31 -76t-76 -32q-47 -1 -77 28t-29 76zM809 1422q1 46 30.5 77t76.5 33q47 1 77 -28.5t30 -77.5 q-1 -46 -31 -76t-77 -32q-46 -1 -76 28t-30 76z" />
<glyph d="M106 0l28 160h305l147 843h-306l28 161h800l-29 -161h-313l-146 -843h314l-29 -160h-799zM475 1507h204l129 -266h-134z" />
<glyph d="M106 0l28 160h305l147 843h-306l28 161h800l-29 -161h-313l-146 -843h314l-29 -160h-799zM644 1238l221 266h231l-302 -266h-150z" />
<glyph d="M106 0l28 160h305l147 843h-306l28 161h800l-29 -161h-313l-146 -843h314l-29 -160h-799zM450 1279l2 27l272 238h106l211 -239l-2 -27l-146 1l-118 150l-172 -149z" />
<glyph d="M106 0l28 160h305l147 843h-306l28 161h800l-29 -161h-313l-146 -843h314l-29 -160h-799zM442 1396q0 46 29.5 76.5t76.5 32.5q46 1 77 -28.5t30 -76.5q-1 -46 -31 -76t-76 -32q-47 -1 -77 28t-29 76zM858 1394q1 46 30.5 77t76.5 33q47 1 77 -28.5t30 -77.5 q-1 -46 -31 -76t-77 -32q-46 -1 -76 28t-30 76z" />
<glyph d="M84 0l202 1165h164l337 -885l148 885h172l-202 -1165h-163l-336 884l-149 -884h-173zM475 1336q5 43 22 85t44.5 74.5t66 52t86.5 19.5q37 0 69 -16t63 -34.5t62.5 -34t68.5 -14.5q50 2 79 35.5t41 77.5l97 -29q-5 -44 -21.5 -84.5t-44 -72t-66 -50.5t-86.5 -19 q-38 0 -70 15.5t-62.5 34.5t-62 34.5t-68.5 14.5q-24 -1 -43.5 -10.5t-34 -25t-24.5 -35.5t-16 -41z" />
<glyph d="M118 411q-5 67 2 133l8 69q15 107 58.5 210.5t113.5 184t165.5 128.5t214.5 45q77 -2 137.5 -26t106 -64.5t76.5 -94.5t48.5 -116.5t21.5 -130t-3 -134.5l-8 -66q-15 -108 -58.5 -210.5t-113.5 -182.5t-165.5 -127.5t-214.5 -44.5q-76 2 -136 25.5t-105.5 64t-76.5 94 t-48.5 115t-22.5 128.5zM291 458.5q0 -45.5 7 -90.5t22 -86t41 -72.5t64.5 -51t91.5 -21.5q85 -3 148.5 35t107.5 99t69.5 136t36.5 147l9 69q5 42 5.5 87.5t-6.5 90t-21.5 84.5t-40.5 71t-64.5 49.5t-91.5 20.5q-83 3 -146.5 -34.5t-108 -97.5t-71.5 -134.5t-38 -145.5 l-9 -68q-5 -42 -5 -87.5zM487 1535h204l129 -266h-134z" />
<glyph d="M118 411q-5 67 2 133l8 69q15 107 58.5 210.5t113.5 184t165.5 128.5t214.5 45q77 -2 137.5 -26t106 -64.5t76.5 -94.5t48.5 -116.5t21.5 -130t-3 -134.5l-8 -66q-15 -108 -58.5 -210.5t-113.5 -182.5t-165.5 -127.5t-214.5 -44.5q-76 2 -136 25.5t-105.5 64t-76.5 94 t-48.5 115t-22.5 128.5zM291 458.5q0 -45.5 7 -90.5t22 -86t41 -72.5t64.5 -51t91.5 -21.5q85 -3 148.5 35t107.5 99t69.5 136t36.5 147l9 69q5 42 5.5 87.5t-6.5 90t-21.5 84.5t-40.5 71t-64.5 49.5t-91.5 20.5q-83 3 -146.5 -34.5t-108 -97.5t-71.5 -134.5t-38 -145.5 l-9 -68q-5 -42 -5 -87.5zM656 1266l221 266h231l-302 -266h-150z" />
<glyph d="M118 411q-5 67 2 133l8 69q15 107 58.5 210.5t113.5 184t165.5 128.5t214.5 45q77 -2 137.5 -26t106 -64.5t76.5 -94.5t48.5 -116.5t21.5 -130t-3 -134.5l-8 -66q-15 -108 -58.5 -210.5t-113.5 -182.5t-165.5 -127.5t-214.5 -44.5q-76 2 -136 25.5t-105.5 64t-76.5 94 t-48.5 115t-22.5 128.5zM291 458.5q0 -45.5 7 -90.5t22 -86t41 -72.5t64.5 -51t91.5 -21.5q85 -3 148.5 35t107.5 99t69.5 136t36.5 147l9 69q5 42 5.5 87.5t-6.5 90t-21.5 84.5t-40.5 71t-64.5 49.5t-91.5 20.5q-83 3 -146.5 -34.5t-108 -97.5t-71.5 -134.5t-38 -145.5 l-9 -68q-5 -42 -5 -87.5zM462 1307l2 27l272 238h106l211 -239l-2 -27l-146 1l-118 150l-172 -149z" />
<glyph d="M118 411q-5 67 2 133l8 69q15 107 58.5 210.5t113.5 184t165.5 128.5t214.5 45q77 -2 137.5 -26t106 -64.5t76.5 -94.5t48.5 -116.5t21.5 -130t-3 -134.5l-8 -66q-15 -108 -58.5 -210.5t-113.5 -182.5t-165.5 -127.5t-214.5 -44.5q-76 2 -136 25.5t-105.5 64t-76.5 94 t-48.5 115t-22.5 128.5zM291 458.5q0 -45.5 7 -90.5t22 -86t41 -72.5t64.5 -51t91.5 -21.5q85 -3 148.5 35t107.5 99t69.5 136t36.5 147l9 69q5 42 5.5 87.5t-6.5 90t-21.5 84.5t-40.5 71t-64.5 49.5t-91.5 20.5q-83 3 -146.5 -34.5t-108 -97.5t-71.5 -134.5t-38 -145.5 l-9 -68q-5 -42 -5 -87.5zM424 1336q5 43 22 85t44.5 74.5t66 52t86.5 19.5q37 0 69 -16t63 -34.5t62.5 -34t68.5 -14.5q50 2 79 35.5t41 77.5l97 -29q-5 -44 -21.5 -84.5t-44 -72t-66 -50.5t-86.5 -19q-38 0 -70 15.5t-62.5 34.5t-62 34.5t-68.5 14.5q-24 -1 -43.5 -10.5 t-34 -25t-24.5 -35.5t-16 -41z" />
<glyph d="M118 411q-5 67 2 133l8 69q15 107 58.5 210.5t113.5 184t165.5 128.5t214.5 45q77 -2 137.5 -26t106 -64.5t76.5 -94.5t48.5 -116.5t21.5 -130t-3 -134.5l-8 -66q-15 -108 -58.5 -210.5t-113.5 -182.5t-165.5 -127.5t-214.5 -44.5q-76 2 -136 25.5t-105.5 64t-76.5 94 t-48.5 115t-22.5 128.5zM291 458.5q0 -45.5 7 -90.5t22 -86t41 -72.5t64.5 -51t91.5 -21.5q85 -3 148.5 35t107.5 99t69.5 136t36.5 147l9 69q5 42 5.5 87.5t-6.5 90t-21.5 84.5t-40.5 71t-64.5 49.5t-91.5 20.5q-83 3 -146.5 -34.5t-108 -97.5t-71.5 -134.5t-38 -145.5 l-9 -68q-5 -42 -5 -87.5zM454 1424q0 46 29.5 76.5t76.5 32.5q46 1 77 -28.5t30 -76.5q-1 -46 -31 -76t-76 -32q-47 -1 -77 28t-29 76zM870 1422q1 46 30.5 77t76.5 33q47 1 77 -28.5t30 -77.5q-1 -46 -31 -76t-77 -32q-46 -1 -76 28t-30 76z" />
<glyph d="M142 385l132 780h177l-131 -781q-6 -53 4.5 -98t36.5 -78t67 -52.5t96 -20.5q58 -2 108 15.5t88.5 50.5t64 79.5t35.5 103.5l134 781h179l-130 -778q-13 -93 -56.5 -168t-109.5 -128t-149 -81t-176 -26q-86 2 -157.5 32t-121.5 82.5t-74.5 125.5t-16.5 161zM483 1535h204 l129 -266h-134z" />
<glyph d="M142 385l132 780h177l-131 -781q-6 -53 4.5 -98t36.5 -78t67 -52.5t96 -20.5q58 -2 108 15.5t88.5 50.5t64 79.5t35.5 103.5l134 781h179l-130 -778q-13 -93 -56.5 -168t-109.5 -128t-149 -81t-176 -26q-86 2 -157.5 32t-121.5 82.5t-74.5 125.5t-16.5 161zM652 1266 l221 266h231l-302 -266h-150z" />
<glyph d="M142 385l132 780h177l-131 -781q-6 -53 4.5 -98t36.5 -78t67 -52.5t96 -20.5q58 -2 108 15.5t88.5 50.5t64 79.5t35.5 103.5l134 781h179l-130 -778q-13 -93 -56.5 -168t-109.5 -128t-149 -81t-176 -26q-86 2 -157.5 32t-121.5 82.5t-74.5 125.5t-16.5 161zM458 1307 l2 27l272 238h106l211 -239l-2 -27l-146 1l-118 150l-172 -149z" />
<glyph d="M142 385l132 780h177l-131 -781q-6 -53 4.5 -98t36.5 -78t67 -52.5t96 -20.5q58 -2 108 15.5t88.5 50.5t64 79.5t35.5 103.5l134 781h179l-130 -778q-13 -93 -56.5 -168t-109.5 -128t-149 -81t-176 -26q-86 2 -157.5 32t-121.5 82.5t-74.5 125.5t-16.5 161zM450 1424 q0 46 29.5 76.5t76.5 32.5q46 1 77 -28.5t30 -76.5q-1 -46 -31 -76t-76 -32q-47 -1 -77 28t-29 76zM866 1422q1 46 30.5 77t76.5 33q47 1 77 -28.5t30 -77.5q-1 -46 -31 -76t-77 -32q-46 -1 -76 28t-30 76z" />
<glyph d="M178 1165h195l214 -584l418 584h218l-574 -770l-68 -395h-183l75 427zM603 1266l221 266h231l-302 -266h-150z" />
<glyph d="M178 1165h195l214 -584l418 584h218l-574 -770l-68 -395h-183l75 427zM401 1424q0 46 29.5 76.5t76.5 32.5q46 1 77 -28.5t30 -76.5q-1 -46 -31 -76t-76 -32q-47 -1 -77 28t-29 76zM817 1422q1 46 30.5 77t76.5 33q47 1 77 -28.5t30 -77.5q-1 -46 -31 -76t-77 -32 q-46 -1 -76 28t-30 76z" />
</font>
</defs>
</svg>
